<svg id="Layer_1" data-name="Layer 1" xmlns="http://www.w3.org/2000/svg" viewBox="0 0 83.97 104.23"><defs><style>.cls-1,.cls-2{fill:#ffffff;}.cls-2{fill-rule:evenodd;}</style></defs><title>Favicon</title><path class="cls-1" d="M32.45,96.35V31.28H43.22a38,38,0,0,1,14.06,2.33,24.49,24.49,0,0,1,9.55,6.57,26.49,26.49,0,0,1,5.45,10.09A45.26,45.26,0,0,1,74,63.13V64q0,14.85-7.67,23.58t-23,8.73Zm-9.67,8.16H43.56a47.43,47.43,0,0,0,18-3.12,34.66,34.66,0,0,0,12.61-8.56A34.14,34.14,0,0,0,81.61,80,50.82,50.82,0,0,0,84,64.27v-1a49.35,49.35,0,0,0-2.44-15.76,34.08,34.08,0,0,0-7.45-12.58,34.91,34.91,0,0,0-12.55-8.39,47.23,47.23,0,0,0-17.78-3.06h-21Z" transform="translate(-0.03 -0.28)"/><path class="cls-2" d="M4.24,11.57,10.79,4.9,33.41,28l-6.55,6.68Z" transform="translate(-0.03 -0.28)"/><path class="cls-2" d="M0,81.13l6.55-6.68L29.2,97.53l-6.55,6.68Z" transform="translate(-0.03 -0.28)"/><path class="cls-1" d="M9.72,73.16V8.1H20.5a38,38,0,0,1,14,2.32A24.53,24.53,0,0,1,44.11,17a26.55,26.55,0,0,1,5.44,10.09A45.33,45.33,0,0,1,51.27,40v.9q0,14.86-7.66,23.58t-23,8.73ZM.05,81.32H20.83A47.52,47.52,0,0,0,38.89,78.2,34.73,34.73,0,0,0,51.5,69.65a34.34,34.34,0,0,0,7.38-12.81,50.59,50.59,0,0,0,2.39-15.76v-1a49,49,0,0,0-2.44-15.75,34.1,34.1,0,0,0-7.44-12.59A34.93,34.93,0,0,0,38.83,3.34,47.2,47.2,0,0,0,21.05.28H.05Z" transform="translate(-0.03 -0.28)"/></svg>
