<svg id="icons" enable-background="new 0 0 64 64" height="512" viewBox="0 0 64 64" width="512" xmlns="http://www.w3.org/2000/svg"><path d="m61 3.998h-58c-1.654 0-3 1.346-3 3v52.004c0 .553.447 1 1 1h62c.553 0 1-.447 1-1v-52.004c0-1.654-1.346-3-3-3zm-59 6h60v48.004h-60zm1-4h1.02c-.552 0-.994.447-.994 1s.452 1 1.005 1c.552 0 1-.447 1-1s-.448-1-1-1h2.988c-.552 0-.994.447-.994 1s.452 1 1.005 1c.552 0 1-.447 1-1s-.448-1-1-1h2.992c-.552 0-.994.447-.994 1s.452 1 1.005 1c.552 0 1-.447 1-1s-.448-1-1-1h50.967c.552 0 1 .448 1 1v1h-51.968-3.003-2.999-2.03v-1c0-.552.448-1 1-1z"/><path d="m59 11.998h-54c-.553 0-1 .447-1 1v2.999c0 .553.447 1 1 1h54c.553 0 1-.447 1-1v-2.999c0-.553-.447-1-1-1zm-53 2h42.995v.999h-42.995zm52 .999h-7.005v-.999h7.005z"/><path d="m5 20.997h14c.553 0 1-.447 1-1s-.447-1-1-1h-14c-.553 0-1 .447-1 1s.447 1 1 1z"/><path d="m59 21.997h-54c-.553 0-1 .447-1 1s.447 1 1 1h54c.553 0 1-.447 1-1s-.447-1-1-1z"/><path d="m59 24.997h-54c-.553 0-1 .447-1 1s.447 1 1 1h54c.553 0 1-.447 1-1s-.447-1-1-1z"/><path d="m5 29.997h27.975c.553 0 1-.447 1-1s-.447-1-1-1h-27.975c-.553 0-1 .447-1 1s.447 1 1 1z"/><path d="m5 33.996h14c.553 0 1-.447 1-1s-.447-1-1-1h-14c-.553 0-1 .447-1 1s.447 1 1 1z"/><path d="m59 34.996h-54c-.553 0-1 .447-1 1s.447 1 1 1h54c.553 0 1-.447 1-1s-.447-1-1-1z"/><path d="m59 37.996h-54c-.553 0-1 .447-1 1s.447 1 1 1h54c.553 0 1-.447 1-1s-.447-1-1-1z"/><path d="m5 42.996h27.975c.553 0 1-.447 1-1s-.447-1-1-1h-27.975c-.553 0-1 .447-1 1s.447 1 1 1z"/><path d="m5 46.997h14c.553 0 1-.447 1-1s-.447-1-1-1h-14c-.553 0-1 .447-1 1s.447 1 1 1z"/><path d="m59 47.997h-54c-.553 0-1 .447-1 1s.447 1 1 1h54c.553 0 1-.447 1-1s-.447-1-1-1z"/><path d="m59 50.997h-54c-.553 0-1 .447-1 1s.447 1 1 1h54c.553 0 1-.447 1-1s-.447-1-1-1z"/><path d="m32.975 53.997h-27.975c-.553 0-1 .447-1 1s.447 1 1 1h27.975c.553 0 1-.447 1-1s-.448-1-1-1z"/></svg>