<svg id="icons" enable-background="new 0 0 64 64" height="512" viewBox="0 0 64 64" width="512" xmlns="http://www.w3.org/2000/svg"><path d="m61 3.998h-58c-1.654 0-3 1.346-3 3v52.004c0 .553.447 1 1 1h62c.553 0 1-.447 1-1v-52.004c0-1.654-1.346-3-3-3zm-59 6h60v48.004h-60zm1-4h1.02c-.552 0-.994.448-.994 1s.452 1 1.005 1c.552 0 1-.448 1-1s-.448-1-1-1h2.988c-.552 0-.994.448-.994 1s.452 1 1.005 1c.552 0 1-.448 1-1s-.448-1-1-1h2.992c-.552 0-.994.448-.994 1s.452 1 1.005 1c.552 0 1-.448 1-1s-.448-1-1-1h50.967c.552 0 1 .449 1 1v1h-51.968-3.003-2.999-2.03v-1c0-.551.448-1 1-1z"/><path d="m16.995 14.998h30.01c.553 0 1-.448 1-1s-.447-1-1-1h-30.01c-.553 0-1 .448-1 1s.447 1 1 1z"/><path d="m24.002 15.998c-.553 0-1 .448-1 1s.447 1 1 1h15.996c.553 0 1-.448 1-1s-.447-1-1-1z"/><path d="m40.51 50.996h-17.014c-1.379 0-2.5 1.121-2.5 2.5s1.121 2.5 2.5 2.5h17.014c1.379 0 2.5-1.121 2.5-2.5s-1.121-2.5-2.5-2.5zm-17.014 3c-.275 0-.5-.225-.5-.5s.225-.5.5-.5h17.014c.275 0 .5.225.5.5s-.225.5-.5.5z"/><path d="m58.999 33.001h-53.998c-.553 0-1 .447-1 1v14c0 .553.447 1 1 1h53.998c.553 0 1-.447 1-1v-14c0-.553-.447-1-1-1zm-1 14h-51.998v-12h51.998z"/><path d="m5.001 31.998h25.5c.553 0 1-.448 1-1v-3c0-.552-.447-1-1-1h-25.5c-.553 0-1 .448-1 1v3c0 .552.447 1 1 1zm1-3h23.5v1h-23.5z"/><path d="m59 20.998h-53.999c-.553 0-1 .448-1 1v3c0 .552.447 1 1 1h53.999c.553 0 1-.448 1-1v-3c0-.552-.447-1-1-1zm-1 3h-51.999v-1h51.999z"/><path d="m59 26.998h-25.501c-.553 0-1 .448-1 1v3c0 .552.447 1 1 1h25.501c.553 0 1-.448 1-1v-3c0-.552-.447-1-1-1zm-1 3h-23.501v-1h23.501z"/></svg>