<svg id="icons" enable-background="new 0 0 64 64" height="512" viewBox="0 0 64 64" width="512" xmlns="http://www.w3.org/2000/svg"><path d="m61 3.998h-58c-1.654 0-3 1.346-3 3v52.004c0 .553.447 1 1 1h62c.553 0 1-.447 1-1v-52.004c0-1.654-1.346-3-3-3zm-3 54.004h-23v-3.002h23zm1-5.002h-25c-.553 0-1 .447-1 1v4.002h-2v-4.002c0-.553-.447-1-1-1h-25c-.553 0-1 .447-1 1v4.002h-2v-48.004h2v3.003c0 .553.447 1 1 1h25c.553 0 1-.447 1-1v-3.003h2v3.003c0 .553.447 1 1 1h25c.553 0 1-.447 1-1v-3.003h2v48.004h-2v-4.002c0-.553-.447-1-1-1zm-30 5.002h-23v-3.002h23zm-23-48.004h23v2.003h-23zm29 0h23v2.003h-23zm-32-4h1.02c-.552 0-.994.447-.994 1s.452 1 1.005 1c.552 0 1-.447 1-1s-.448-1-1-1h2.988c-.552 0-.994.447-.994 1s.452 1 1.005 1c.552 0 1-.447 1-1s-.448-1-1-1h2.992c-.552 0-.994.447-.994 1s.452 1 1.005 1c.552 0 1-.447 1-1s-.448-1-1-1h50.967c.552 0 1 .448 1 1v1h-51.968-3.003-2.999-2.03v-1c0-.552.448-1 1-1z"/><path d="m9.99 36.011h44.02c.553 0 1-.447 1-1s-.447-1-1-1h-44.02c-.553 0-1 .447-1 1s.448 1 1 1z"/><path d="m9.99 33.008h44.02c.553 0 1-.447 1-1s-.447-1-1-1h-44.02c-.553 0-1 .447-1 1s.448 1 1 1z"/><path d="m44 37.011h-24c-.553 0-1 .447-1 1s.447 1 1 1h24c.553 0 1-.447 1-1s-.447-1-1-1z"/><path d="m58.999 16.002h-53.998c-.553 0-1 .447-1 1v33.011c0 .553.447 1 1 1h53.998c.553 0 1-.447 1-1v-33.011c0-.553-.447-1-1-1zm-1 33.011h-51.998v-31.011h51.998z"/><path d="m32 29.002c2.206 0 4-1.794 4-4s-1.794-4-4-4-4 1.794-4 4 1.794 4 4 4zm0-6c1.103 0 2 .897 2 2s-.897 2-2 2-2-.897-2-2 .897-2 2-2z"/><path d="m36.498 41.003h-8.996c-1.379 0-2.5 1.121-2.5 2.5s1.121 2.5 2.5 2.5h8.996c1.379 0 2.5-1.121 2.5-2.5s-1.121-2.5-2.5-2.5zm-8.996 3c-.275 0-.5-.225-.5-.5s.225-.5.5-.5h8.996c.275 0 .5.225.5.5s-.225.5-.5.5z"/></svg>