<svg id="icons" enable-background="new 0 0 64 64" height="512" viewBox="0 0 64 64" width="512" xmlns="http://www.w3.org/2000/svg"><path d="m61 3.998h-58c-1.654 0-3 1.346-3 3v52.004c0 .553.447 1 1 1h62c.553 0 1-.447 1-1v-52.004c0-1.654-1.346-3-3-3zm-59 6h60v48.004h-60zm1-4h1.02c-.552 0-.994.447-.994 1s.452 1 1.005 1c.552 0 1-.447 1-1s-.448-1-1-1h2.988c-.552 0-.994.447-.994 1s.452 1 1.005 1c.552 0 1-.447 1-1s-.448-1-1-1h2.992c-.552 0-.994.447-.994 1s.452 1 1.005 1c.552 0 1-.447 1-1s-.448-1-1-1h50.967c.552 0 1 .448 1 1v1h-51.968-3.003-2.999-2.03v-1c0-.552.448-1 1-1z"/><path d="m10.997 40.003v-9.999c0-.553-.447-1-1-1h-5c-.553 0-1 .447-1 1v9.999c0 .553.447 1 1 1h5c.553 0 1-.447 1-1zm-2-8.999v2.999h-3v-2.999zm-3 7.999v-3h3v3z"/><path d="m18.994 29.004h-5c-.553 0-1 .447-1 1v9.999c0 .553.447 1 1 1h5c.553 0 1-.447 1-1v-9.999c0-.553-.447-1-1-1zm-1 2v2.999h-3v-2.999zm-3 7.999v-3h3v3z"/><path d="m30.993 40.003v-9.999c0-.553-.447-1-1-1h-5c-.553 0-1 .447-1 1v9.999c0 .553.447 1 1 1h5c.553 0 1-.447 1-1zm-2-8.999v2.999h-3v-2.999zm-3 7.999v-3h3v3z"/><path d="m39.99 40.003v-9.999c0-.553-.447-1-1-1h-5c-.553 0-1 .447-1 1v9.999c0 .553.447 1 1 1h5c.553 0 1-.447 1-1zm-2-8.999v2.999h-3v-2.999zm-3 7.999v-3h3v3z"/><path d="m50.989 40.003v-9.999c0-.553-.447-1-1-1h-5c-.553 0-1 .447-1 1v9.999c0 .553.447 1 1 1h5c.553 0 1-.447 1-1zm-2-8.999v2.999h-3v-2.999zm-3 7.999v-3h3v3z"/><path d="m59.001 29.004h-5c-.553 0-1 .447-1 1v9.999c0 .553.447 1 1 1h5c.553 0 1-.447 1-1v-9.999c0-.553-.447-1-1-1zm-1 2v2.999h-3v-2.999zm-3 7.999v-3h3v3z"/><path d="m15.998 42.002h-8c-.553 0-1 .447-1 1s.447 1 1 1h8c.553 0 1-.447 1-1s-.447-1-1-1z"/><path d="m27.994 44.002h8c.553 0 1-.447 1-1s-.447-1-1-1h-8c-.553 0-1 .447-1 1s.447 1 1 1z"/><path d="m56.001 42.002h-8c-.553 0-1 .447-1 1s.447 1 1 1h8c.553 0 1-.447 1-1s-.447-1-1-1z"/><path d="m22.027 32.002h-.011c-.552 0-.994.447-.994 1s.452 1 1.005 1c.552 0 1-.447 1-1s-.448-1-1-1z"/><path d="m42.03 32.002h-.01c-.552 0-.994.447-.994 1s.452 1 1.005 1c.552 0 1-.447 1-1s-.449-1-1.001-1z"/><path d="m22.027 36.002h-.011c-.552 0-.994.447-.994 1s.452 1 1.005 1c.552 0 1-.447 1-1s-.448-1-1-1z"/><path d="m42.03 36.002h-.01c-.552 0-.994.447-.994 1s.452 1 1.005 1c.552 0 1-.447 1-1s-.449-1-1.001-1z"/><path d="m14 23.001h36c.553 0 1-.447 1-1s-.447-1-1-1h-36c-.553 0-1 .447-1 1s.447 1 1 1z"/><path d="m39 24.004h-14c-.553 0-1 .447-1 1s.447 1 1 1h14c.553 0 1-.447 1-1s-.447-1-1-1z"/><path d="m40.507 47.002h-17.014c-1.379 0-2.5 1.121-2.5 2.5s1.121 2.5 2.5 2.5h17.014c1.379 0 2.5-1.121 2.5-2.5s-1.121-2.5-2.5-2.5zm-17.014 3c-.275 0-.5-.225-.5-.5s.225-.5.5-.5h17.014c.275 0 .5.225.5.5s-.225.5-.5.5z"/><path d="m32 19.998c1.654 0 3-1.346 3-3s-1.346-3-3-3-3 1.346-3 3 1.346 3 3 3zm0-4c.552 0 1 .448 1 1s-.448 1-1 1-1-.448-1-1 .448-1 1-1z"/></svg>