<?xml version="1.0"?>
<svg xmlns="http://www.w3.org/2000/svg" id="Outline" viewBox="0 0 64 64" width="512" height="512"><path d="M56.758,9a5.207,5.207,0,0,0-3.707,1.535l-3.758,3.758L49,14.586V10a1,1,0,0,0-1-1H3a1,1,0,0,0-1,1V55a1,1,0,0,0,1,1H48a1,1,0,0,0,1-1V29.414l7.707-7.707,3.758-3.758A5.242,5.242,0,0,0,56.758,9ZM39,39.413,42.562,49H36.711l-1.883-5.414ZM29,46.586,24.414,42,50,16.414,54.586,21ZM28.586,35H21.943l2.74-7h2.606l2.141,6.156ZM31,32.585l-2.057-5.913A1,1,0,0,0,28,26H24a1,1,0,0,0-.932.636l-3.521,9A1,1,0,0,0,20.479,37h6.107l-4.293,4.293c-.009.009-.012.022-.021.032a.967.967,0,0,0-.172.259c-.01.022-.023.042-.032.065s-.012.022-.016.035L21.946,42H17.739a1,1,0,0,0-.931.636L14.317,49H8.477l13.2-33h8.628l4.68,12.6ZM22.187,47.6,23.4,48.813l-1.818.606Zm3.333.505L22.894,45.48l.543-1.628,3.711,3.71ZM47,54H4V11H47v5.586L36.541,27.045l-4.6-12.394A1,1,0,0,0,31,14H21a1,1,0,0,0-.929.629l-14,35A1,1,0,0,0,7,51h8a1,1,0,0,0,.932-.636L18.422,44H21.28l-2.228,6.684A1,1,0,0,0,20,52a.987.987,0,0,0,.316-.052l9-3c.013,0,.023-.012.035-.016s.043-.022.065-.032a.967.967,0,0,0,.259-.172c.01-.009.023-.012.032-.021l3.55-3.55,1.8,5.171A1,1,0,0,0,36,51h8a1,1,0,0,0,.937-1.349l-4.38-11.794L47,31.414ZM59.051,16.535,56,19.586,51.414,15l3.051-3.051a3.243,3.243,0,0,1,4.586,4.586Z"/></svg>
