<svg height="512pt" viewBox="0 -20 512 512" width="512pt" xmlns="http://www.w3.org/2000/svg"><path d="m462 0h-412c-27.570312 0-50 22.429688-50 50v372c0 27.570312 22.429688 50 50 50h412c27.570312 0 50-22.429688 50-50v-372c0-27.570312-22.429688-50-50-50zm30 422c0 16.542969-13.457031 30-30 30h-412c-16.542969 0-30-13.457031-30-30v-372c0-16.542969 13.457031-30 30-30h412c16.542969 0 30 13.457031 30 30zm0 0"/><path d="m446 370h-180v-6c0-16.542969-13.457031-30-30-30s-30 13.457031-30 30v6h-140c-5.523438 0-10 4.476562-10 10s4.476562 10 10 10h140v6c0 16.542969 13.457031 30 30 30s30-13.457031 30-30v-6h180c5.523438 0 10-4.476562 10-10s-4.476562-10-10-10zm-200 26c0 5.515625-4.484375 10-10 10s-10-4.484375-10-10v-32c0-5.515625 4.484375-10 10-10s10 4.484375 10 10zm0 0"/><path d="m322.578125 182c0-8.910156-4.605469-16.890625-12.324219-21.347656l-59.867187-34.5625c-7.714844-4.457032-16.929688-4.457032-24.648438 0-7.71875 4.457031-12.324219 12.433594-12.324219 21.347656v69.128906c0 8.910156 4.605469 16.890625 12.324219 21.34375 3.859375 2.230469 8.089844 3.34375 12.324219 3.34375s8.464844-1.113281 12.324219-3.34375l59.867187-34.5625c7.71875-4.457031 12.324219-12.4375 12.324219-21.347656zm-22.324219 4.027344-59.867187 34.5625c-2.019531 1.167968-3.78125.503906-4.648438 0-.867187-.5-2.324219-1.691406-2.324219-4.027344v-69.128906c0-2.335938 1.457032-3.523438 2.324219-4.027344.511719-.292969 1.335938-.648438 2.339844-.648438.695313 0 1.480469.171876 2.308594.648438l59.867187 34.566406c2.023438 1.167969 2.324219 3.023438 2.324219 4.027344s-.300781 2.859375-2.324219 4.027344zm0 0"/><path d="m446 56h-380c-5.523438 0-10 4.476562-10 10v232c0 5.523438 4.476562 10 10 10h145.0625c5.523438 0 10-4.476562 10-10s-4.476562-10-10-10h-135.0625v-212h360v212h-134.9375c-5.523438 0-10 4.476562-10 10s4.476562 10 10 10h144.9375c5.523438 0 10-4.476562 10-10v-232c0-5.523438-4.476562-10-10-10zm0 0"/><path d="m248.988281 290.988281c-1.859375 1.863281-2.929687 4.441407-2.929687 7.070313 0 2.640625 1.070312 5.210937 2.929687 7.070312 1.863281 1.871094 4.441407 2.929688 7.070313 2.929688 2.640625 0 5.210937-1.058594 7.070312-2.929688 1.871094-1.859375 2.929688-4.429687 2.929688-7.070312 0-2.628906-1.058594-5.207032-2.929688-7.070313-1.859375-1.859375-4.429687-2.929687-7.070312-2.929687-2.628906 0-5.207032 1.070312-7.070313 2.929687zm0 0"/></svg>