<?xml version="1.0" encoding="iso-8859-1"?>
<!-- Generator: Adobe Illustrator 19.0.0, SVG Export Plug-In . SVG Version: 6.00 Build 0)  -->
<svg xmlns="http://www.w3.org/2000/svg" xmlns:xlink="http://www.w3.org/1999/xlink" version="1.1" id="Layer_1" x="0px" y="0px" viewBox="0 0 512 512" style="enable-background:new 0 0 512 512;" xml:space="preserve" width="512" height="512">
<g>
	<path d="M135.2,159.667c2.907,1.698,10.54,3.745,11.851-1l3.399-12.5h21.101c0,0,3.383,12.44,3.399,12.5   c1.327,4.877,8.907,2.721,11.851,1c2.058-1.203,3.667-3.115,3.05-5.599c0,0-18.636-60.791-18.7-61   c-2.231-7.277-18.197-7.225-20.4,0c0,0.002-18.601,61-18.602,61.007C131.511,156.624,133.121,158.453,135.2,159.667z    M160.95,107.367l7.301,26.8H153.65L160.95,107.367z"/>
	<path d="M330.837,160.191c1.505,1.002,3.652,1.343,5.326,1.379c5.005,0.107,10.025-0.002,15.031-0.002   c6.921,0,14.339,0.224,20.186-4.097c5.392-3.985,6.722-11.084,6.722-17.403v-2.1c0-4.666-0.867-8.184-2.6-10.551   c-1.734-2.365-4.3-4.183-7.7-5.449c5.666-2.466,8.5-7.7,8.5-15.7c0-11.866-6.667-17.8-20-17.8c0,0-20.49,0-20.5,0   c-2.833,0-6.8,1.315-6.8,4.8c0,0,0,63.296,0,63.599C329.003,158.405,329.753,159.47,330.837,160.191z M344.503,102.067h10.5   c1.8,0,3.2,0.7,4.2,2.1c1,1.4,1.5,3.035,1.5,4.9c0,1.867-0.5,3.484-1.5,4.85c-1,1.367-2.4,2.051-4.2,2.051h-10.5V102.067z    M344.503,127.968h10c5.333,0,8,3.066,8,9.199v1.601c0,6.134-2.667,9.2-8,9.2h-10V127.968z"/>
	<path d="M466,0H46c-5.523,0-10,4.477-10,10v492c0,5.523,4.477,10,10,10h420c5.522,0,10-4.477,10-10V10C476,4.477,471.522,0,466,0z    M456,452H296c-5.521,0-10,4.49-10,10c0,5.51,4.479,10,10,10h160v20H56v-20h160c5.51,0,10-4.49,10-10c0-5.51-4.49-10-10-10H56V20   h400V452z"/>
	<path d="M161,210c46.869,0,85-38.131,85-85s-38.131-85-85-85s-85,38.131-85,85S114.131,210,161,210z M161,60   c35.841,0,65,29.159,65,65s-29.159,65-65,65s-65-29.159-65-65S125.159,60,161,60z"/>
	<path d="M351,210c46.869,0,85-38.131,85-85s-38.131-85-85-85s-85,38.131-85,85S304.131,210,351,210z M351,60   c35.841,0,65,29.159,65,65s-29.159,65-65,65s-65-29.159-65-65S315.159,60,351,60z"/>
	<path d="M186,255h-15v-15c0-5.523-4.477-10-10-10s-10,4.477-10,10v15h-15c-5.523,0-10,4.477-10,10s4.477,10,10,10h15v15   c0,5.523,4.477,10,10,10s10-4.477,10-10v-15h15c5.523,0,10-4.477,10-10S191.523,255,186,255z"/>
	<path d="M186,335h-50c-5.523,0-10,4.477-10,10s4.477,10,10,10h50c5.523,0,10-4.477,10-10S191.523,335,186,335z"/>
	<path d="M186,390h-50c-5.523,0-10,4.477-10,10s4.477,10,10,10h50c5.523,0,10-4.477,10-10S191.523,390,186,390z"/>
	<path d="M376,385h-15v-15c0-5.523-4.478-10-10-10s-10,4.477-10,10v15h-15c-5.522,0-10,4.477-10,10s4.478,10,10,10h15v15   c0,5.523,4.478,10,10,10s10-4.477,10-10v-15h15c5.522,0,10-4.477,10-10S381.522,385,376,385z"/>
	<path d="M376,295h-15v-15c0-5.523-4.478-10-10-10s-10,4.477-10,10v15h-15c-5.522,0-10,4.477-10,10s4.478,10,10,10h15v15   c0,5.523,4.478,10,10,10s10-4.477,10-10v-15h15c5.522,0,10-4.477,10-10S381.522,295,376,295z"/>
	<path d="M376,230h-50c-5.522,0-10,4.477-10,10s4.478,10,10,10h50c5.522,0,10-4.477,10-10S381.522,230,376,230z"/>
	<path d="M256,472c5.51,0,10-4.49,10-10c0-5.51-4.49-10-10-10c-5.51,0-10,4.49-10,10C246,467.51,250.49,472,256,472z"/>
</g>















</svg>
