<svg enable-background="new 0 0 36 60" height="512" viewBox="0 0 36 60" width="512" xmlns="http://www.w3.org/2000/svg"><path d="m30 28h-24c-.552 0-1-.448-1-1v-18c0-.552.448-1 1-1h24c.552 0 1 .448 1 1v18c0 .552-.448 1-1 1zm-23-2h22v-16h-22z"/><path d="m21 28h-15c-.552 0-1-.448-1-1v-4c0-.297.132-.578.36-.768l6-5c.397-.332.981-.305 1.347.061l9 9c.286.286.372.716.217 1.09-.155.373-.519.617-.924.617zm-14-2h11.586l-6.647-6.647-4.939 4.115z"/><path d="m30 28h-9c-.265 0-.52-.105-.707-.293l-3-3c-.391-.391-.391-1.023 0-1.414l5-5c.196-.196.463-.308.74-.292.277.009.537.133.719.341l7 8c.258.295.32.715.158 1.072-.161.357-.518.586-.91.586zm-8.586-2h6.382l-4.845-5.537-3.537 3.537z"/><path d="m20.5 16c-2.481 0-4.5-2.019-4.5-4.5 0-1.218.482-2.36 1.357-3.215.186-.183.437-.285.699-.285h4.889c.261 0 .512.102.699.285.874.855 1.356 1.997 1.356 3.215 0 2.481-2.019 4.5-4.5 4.5zm-1.997-6c-.326.431-.503.952-.503 1.5 0 1.378 1.122 2.5 2.5 2.5s2.5-1.122 2.5-2.5c0-.548-.177-1.069-.503-1.5z"/><path d="m30 48h-24c-.552 0-1-.448-1-1v-15c0-.552.448-1 1-1h24c.552 0 1 .448 1 1v15c0 .552-.448 1-1 1zm-23-2h22v-13h-22z"/><path d="m20.5 39c-2.481 0-4.5-2.019-4.5-4.5 0-1.218.482-2.36 1.357-3.215.186-.183.437-.285.699-.285h4.889c.261 0 .512.102.699.285.874.855 1.356 1.997 1.356 3.215 0 2.481-2.019 4.5-4.5 4.5zm-1.997-6c-.326.431-.503.952-.503 1.5 0 1.378 1.122 2.5 2.5 2.5s2.5-1.122 2.5-2.5c0-.548-.177-1.069-.503-1.5z"/><path d="m27.375 48h-9.375c-.405 0-.769-.244-.924-.617-.155-.374-.069-.804.217-1.09l5-5c.196-.196.463-.302.74-.292.277.009.537.133.719.341l4.375 5c.258.295.32.715.158 1.072-.161.357-.518.586-.91.586zm-6.961-2h4.757l-2.22-2.537z"/><path d="m18 48h-12c-.552 0-1-.448-1-1v-1c0-.297.132-.578.36-.768l6-5c.397-.332.981-.305 1.347.061l6 6c.286.286.372.716.217 1.09-.155.373-.519.617-.924.617zm-10.438-2h8.024l-3.647-3.647z"/><path d="m21 6h-6c-.552 0-1-.448-1-1s.448-1 1-1h6c.552 0 1 .448 1 1s-.448 1-1 1z"/><path d="m33.002 60h-30.004c-1.653 0-2.998-1.345-2.998-2.998v-10.002c0-.552.448-1 1-1h34c.552 0 1 .448 1 1v10.002c0 1.653-1.345 2.998-2.998 2.998zm-31.002-12v9.002c0 .55.448.998.998.998h30.004c.55 0 .998-.448.998-.998v-9.002z"/><path d="m18 57c-2.206 0-4-1.794-4-4s1.794-4 4-4 4 1.794 4 4-1.794 4-4 4zm0-6c-1.103 0-2 .897-2 2s.897 2 2 2 2-.897 2-2-.897-2-2-2z"/><path d="m33.002 60h-30.004c-1.653 0-2.998-1.345-2.998-2.998v-54c0-1.655 1.346-3.002 3.001-3.002h29.997c1.655 0 3.002 1.347 3.002 3.001v54c0 1.654-1.345 2.999-2.998 2.999zm-30.001-58c-.552 0-1.001.449-1.001 1.001v54c0 .551.448.999.998.999h30.004c.55 0 .998-.448.998-.998v-54c0-.553-.449-1.002-1.002-1.002z"/></svg>