<svg id="Outline" height="512" viewBox="0 0 64 64" width="512" xmlns="http://www.w3.org/2000/svg"><path d="m61 22h-19v-19a1 1 0 0 0 -1-1h-38a1 1 0 0 0 -1 1v38a1 1 0 0 0 1 1h19v19a1 1 0 0 0 1 1h24a1.005 1.005 0 0 0 .707-.293l14-14a1 1 0 0 0 .2-.293c.014-.031.022-.061.033-.093a1 1 0 0 0 .052-.26c0-.021.012-.04.012-.061v-24a1 1 0 0 0 -1.004-1zm-1 2v2h-18v-2zm-32 14.586v-10.586h10.586zm-24-34.586h36v2h-36zm0 4h36v18h-13a1 1 0 0 0 -1 1v13h-22zm20 34h3a1.005 1.005 0 0 0 .707-.293l4.707-4.707h21.586v-2h-19.586l7-7h18.586v18h-13a1 1 0 0 0 -1 1h-17v2h17v11h-22zm24 16.586v-10.586h10.586z"/><path d="m6 16h32v2h-32z"/><path d="m6 20h25v2h-25z"/><path d="m6 24h15v2h-15z"/><path d="m29 41h25v2h-25z"/></svg>