<svg height="512" viewBox="0 0 60 60" width="512" xmlns="http://www.w3.org/2000/svg"><g id="021---Army-Banner" transform="translate(-1)"><path id="Shape" d="m25.926 39.444c5.09 3.818 4.634 3.556 5.074 3.556s.2.1 5.074-3.556c2.4729335-1.8478275 4.1346822-4.581094 4.637-7.627l1.275-7.652c.0779686-.4636644-.177598-.9190225-.614-1.094l-10-4c-.2390984-.0939699-.5049016-.0939699-.744 0l-10 4c-.436402.1749775-.6919686.6303356-.614 1.094l1.275 7.652c.5023178 3.045906 2.1640665 5.7791725 4.637 7.627zm5.074-18.367 8.881 3.552-1.143 6.859c-.4187034 2.5384931-1.803369 4.8165261-3.864 6.357l-3.874 2.905-3.874-2.905c-2.060631-1.5404739-3.4452966-3.8185069-3.864-6.357l-1.143-6.859z"/><path id="Shape" d="m56.846 9.232c-.3101354-.74572485-1.0383556-1.23173096-1.846-1.232h-20.026c1.5577271-2.05464255 1.2924015-4.95794663-.6119486-6.69619874-1.9043501-1.7382521-4.8197527-1.7382521-6.7241028 0-1.9043501 1.73825211-2.1696757 4.64155619-.6119486 6.69619874h-20.026c-.80764439.00026904-1.53586458.48627515-1.846 1.232-1.25497881-.52447758-2.70578105-.13900749-3.53493221.9392118-.82915115 1.0782194-.82915115 2.579357 0 3.6575764.82915116 1.0782193 2.2799534 1.4636894 3.53493221.9392118.31013542.7457249 1.03835561 1.231731 1.846 1.232v35c0 1.6568542 1.34314575 3 3 3h17v5c0 .5522847.4477153 1 1 1h6c.5522847 0 1-.4477153 1-1v-5h17c1.6568542 0 3-1.3431458 3-3v-35c.8076444-.000269 1.5358646-.4862751 1.846-1.232 1.2549788.5244776 2.7057811.1390075 3.5349322-.9392118.8291512-1.0782194.8291512-2.579357 0-3.6575764-.8291511-1.07821929-2.2799534-1.46368938-3.5349322-.9392118zm-28.846-4.232c0-1.65685425 1.3431458-3 3-3s3 1.34314575 3 3-1.3431458 3-3 3-3-1.34314575-3-3zm-24 8c-.55228475 0-1-.4477153-1-1s.44771525-1 1-1 1 .4477153 1 1-.44771525 1-1 1zm29 45h-4v-4h4zm20-12h-31c-.5522847 0-1 .4477153-1 1s.4477153 1 1 1h31v3c0 .5522847-.4477153 1-1 1h-42c-.55228475 0-1-.4477153-1-1v-3h9c.5522847 0 1-.4477153 1-1s-.4477153-1-1-1h-9v-30h44zm-46-32v-4h48v4zm51-1c-.5522847 0-1-.4477153-1-1s.4477153-1 1-1 1 .4477153 1 1-.4477153 1-1 1z"/></g></svg>