<?xml version="1.0" encoding="iso-8859-1"?>
<!-- Generator: Adobe Illustrator 19.0.0, SVG Export Plug-In . SVG Version: 6.00 Build 0)  -->
<svg version="1.1" id="Capa_1" xmlns="http://www.w3.org/2000/svg" xmlns:xlink="http://www.w3.org/1999/xlink" x="0px" y="0px"
	 viewBox="0 0 512 512" style="enable-background:new 0 0 512 512;" xml:space="preserve">
<g>
	<g>
		<path d="M508.963,185.841l-29.026-21.536V39.577c0-4.15-3.364-7.515-7.515-7.515H301.506c-0.29-0.302-41.028-30.583-41.028-30.583
			c-2.659-1.973-6.296-1.974-8.956,0l-41.22,30.583H39.577c-4.15,0-7.515,3.365-7.515,7.515v124.727L3.037,185.84
			C1.145,187.191,0,189.568,0,191.875v312.611C0,508.636,3.365,512,7.515,512h496.971c3.77,0,7.047-2.935,7.466-6.678
			c0.031-0.275,0.049-0.553,0.049-0.836V191.876C512,189.473,510.811,187.319,508.963,185.841z M479.937,183.02l11.247,8.344
			l-11.247,7.075V183.02z M256,16.872l20.475,15.191h-40.949L256,16.872z M47.092,47.092h417.816v160.8l-26.303,16.546h-72.89
			c-4.151,0-7.515,3.365-7.515,7.515c0,4.15,3.364,7.515,7.515,7.515h48.997L256,339.303L97.289,239.468h232.355
			c4.151,0,7.515-3.365,7.515-7.515c0-4.15-3.364-7.515-7.515-7.515H73.396l-26.304-16.546V47.092z M32.063,183.02v15.419
			l-11.247-7.075L32.063,183.02z M15.029,496.971V205.479l463.396,291.491H15.029z M496.971,490.881L270.114,348.18l226.857-142.701
			V490.881z"/>
	</g>
</g>
<g>
	<g>
		<path d="M416.313,88.172h-64.125c-4.151,0-7.515,3.365-7.515,7.515v80.157c0,4.15,3.365,7.515,7.515,7.515h64.125
			c4.151,0,7.515-3.365,7.515-7.515V95.687C423.828,91.537,420.464,88.172,416.313,88.172z M408.799,168.329h-49.096v-65.127h49.096
			V168.329z"/>
	</g>
</g>
<g>
	<g>
		<path d="M320.125,88.172H95.687c-4.15,0-7.515,3.365-7.515,7.515s3.365,7.515,7.515,7.515h224.438
			c4.151,0,7.515-3.365,7.515-7.515S324.276,88.172,320.125,88.172z"/>
	</g>
</g>
<g>
	<g>
		<path d="M216.423,128.251H95.687c-4.15,0-7.515,3.365-7.515,7.515c0,4.15,3.365,7.515,7.515,7.515h120.736
			c4.15,0,7.515-3.365,7.515-7.515C223.937,131.615,220.573,128.251,216.423,128.251z"/>
	</g>
</g>
<g>
	<g>
		<path d="M320.125,128.251h-72.141c-4.15,0-7.515,3.365-7.515,7.515c0,4.15,3.365,7.515,7.515,7.515h72.141
			c4.151,0,7.515-3.365,7.515-7.515C327.64,131.615,324.276,128.251,320.125,128.251z"/>
	</g>
</g>
<g>
	<g>
		<path d="M256.501,168.329H95.687c-4.15,0-7.515,3.365-7.515,7.515s3.365,7.515,7.515,7.515h160.814
			c4.151,0,7.515-3.365,7.515-7.515S260.652,168.329,256.501,168.329z"/>
	</g>
</g>
<g>
	<g>
		<path d="M320.125,168.329h-32.063c-4.151,0-7.515,3.365-7.515,7.515s3.364,7.515,7.515,7.515h32.063
			c4.151,0,7.515-3.365,7.515-7.515S324.276,168.329,320.125,168.329z"/>
	</g>
</g>
<g>
	<g>
		<path d="M336.157,256.501h-40.078c-4.151,0-7.515,3.365-7.515,7.515c0,4.15,3.364,7.515,7.515,7.515h40.078
			c4.151,0,7.515-3.365,7.515-7.515C343.671,259.866,340.308,256.501,336.157,256.501z"/>
	</g>
</g>
<g>
	<g>
		<path d="M264.016,256.501h-88.172c-4.15,0-7.515,3.365-7.515,7.515c0,4.15,3.365,7.515,7.515,7.515h88.172
			c4.151,0,7.515-3.365,7.515-7.515C271.53,259.866,268.167,256.501,264.016,256.501z"/>
	</g>
</g>
<g>
	<g>
		<path d="M247.984,296.579h-32.063c-4.15,0-7.515,3.365-7.515,7.515s3.365,7.515,7.515,7.515h32.063
			c4.15,0,7.515-3.365,7.515-7.515S252.135,296.579,247.984,296.579z"/>
	</g>
</g>
<g>
	<g>
		<path d="M288.063,296.579h-16.031c-4.151,0-7.515,3.365-7.515,7.515s3.364,7.515,7.515,7.515h16.031
			c4.151,0,7.515-3.365,7.515-7.515S292.214,296.579,288.063,296.579z"/>
	</g>
</g>
<g>
</g>
<g>
</g>
<g>
</g>
<g>
</g>
<g>
</g>
<g>
</g>
<g>
</g>
<g>
</g>
<g>
</g>
<g>
</g>
<g>
</g>
<g>
</g>
<g>
</g>
<g>
</g>
<g>
</g>
</svg>
