<svg height="512" viewBox="0 0 64 64" width="512" xmlns="http://www.w3.org/2000/svg"><path d="m59 54h-1v-40a4.006 4.006 0 0 0 -2.667-3.771l-.666 1.884a2.006 2.006 0 0 1 1.333 1.887v40h-15a1 1 0 0 0 -.707.293l-1.707 1.707h-13.172l-1.707-1.707a1 1 0 0 0 -.707-.293h-15v-40a2.006 2.006 0 0 1 1.333-1.887l-.666-1.884a4.006 4.006 0 0 0 -2.667 3.771v40h-1a1 1 0 0 0 -1 1v3a4 4 0 0 0 4 4h48a4 4 0 0 0 4-4v-3a1 1 0 0 0 -1-1zm-1 4a2 2 0 0 1 -2 2h-48a2 2 0 0 1 -2-2v-2h16.586l1.707 1.707a1 1 0 0 0 .707.293h14a1 1 0 0 0 .707-.293l1.707-1.707h16.586z"/><path d="m15 6h2v2h-2z"/><path d="m19 6h2v2h-2z"/><path d="m23 6h2v2h-2z"/><path d="m2 9h2v23h-2z"/><path d="m60 25h2v2h-2z"/><path d="m60 29.086h2v19.914h-2z"/><path d="m34 16a1 1 0 0 0 -1-1h-4a1 1 0 0 0 -1 1v1h-12v2h12v1a1 1 0 0 0 1 1h4a1 1 0 0 0 1-1v-1h14v-2h-14zm-2 3h-2v-2h2z"/><path d="m43 22a1 1 0 0 0 -1-1h-4a1 1 0 0 0 -1 1v1h-21v2h21v1a1 1 0 0 0 1 1h4a1 1 0 0 0 1-1v-1h5v-2h-5zm-2 3h-2v-2h2z"/><path d="m29 28a1 1 0 0 0 -1-1h-4a1 1 0 0 0 -1 1v1h-7v2h7v1a1 1 0 0 0 1 1h4a1 1 0 0 0 1-1v-1h19v-2h-19zm-2 3h-2v-2h2z"/><path d="m31 52h2v2h-2z"/><path d="m53 49v-43a4 4 0 0 0 -4-4h-34a4 4 0 0 0 -4 4v43a1 1 0 0 0 1 1h40a1 1 0 0 0 1-1zm-38-45h34a2 2 0 0 1 2 2v4h-38v-4a2 2 0 0 1 2-2zm-2 44v-36h38v36z"/><path d="m23 37h-6a1 1 0 0 0 -1 1v6a1 1 0 0 0 1 1h6a1 1 0 0 0 1-1v-6a1 1 0 0 0 -1-1zm-1 6h-4v-4h4z"/><path d="m35 37h-6a1 1 0 0 0 -1 1v6a1 1 0 0 0 1 1h6a1 1 0 0 0 1-1v-6a1 1 0 0 0 -1-1zm-1 6h-4v-4h4z"/><path d="m47 37h-6a1 1 0 0 0 -1 1v6a1 1 0 0 0 1 1h6a1 1 0 0 0 1-1v-6a1 1 0 0 0 -1-1zm-1 6h-4v-4h4z"/></svg>