<svg id="icons" enable-background="new 0 0 64 64" height="512" viewBox="0 0 64 64" width="512" xmlns="http://www.w3.org/2000/svg"><path d="m29.03 5c.552 0 1-.447 1-1s-.448-1-1-1h-.01c-.552 0-.994.447-.994 1s.452 1 1.004 1z"/><path d="m32 5h3c.553 0 1-.447 1-1s-.447-1-1-1h-3c-.553 0-1 .447-1 1s.447 1 1 1z"/><path d="m14 57c0 3.859 3.141 7 7 7h22c3.859 0 7-3.141 7-7v-50.998c0-3.305-2.685-5.992-5.987-5.999-.005 0-.008-.003-.013-.003h-24c-3.309 0-6 2.691-6 6zm29 1h-11-11c-2.757 0-5-2.243-5-5v-1h16 16v1c0 2.757-2.243 5-5 5zm5-29.007h-1.999v-16.997h1.999zm0-18.997h-2.999c-.553 0-1 .447-1 1v18.997c0 .553.447 1 1 1h2.999v.999h-3c-.553 0-1 .447-1 1s.447 1 1 1h3v1h-3c-.553 0-1 .447-1 1s.447 1 1 1h3v1h-3c-.553 0-1 .447-1 1s.447 1 1 1h3v10.008h-32v-41.998h32zm-5 52.004h-22c-2.418 0-4.439-1.726-4.9-4.01 1.264 1.241 2.994 2.01 4.9 2.01h22c1.906 0 3.636-.769 4.9-2.01-.461 2.284-2.482 4.01-4.9 4.01zm-23-60h23.99c.004 0 .006.002.01.002 2.206 0 4 1.794 4 4h-32v-.002c0-2.206 1.794-4 4-4z"/><path d="m35 55c0-1.654-1.346-3-3-3s-3 1.346-3 3 1.346 3 3 3 3-1.346 3-3zm-3 1c-.552 0-1-.448-1-1s.448-1 1-1 1 .448 1 1-.448 1-1 1z"/><path d="m18.998 30.993h22c.553 0 1-.447 1-1v-18.997c0-.553-.447-1-1-1h-22c-.553 0-1 .447-1 1v18.997c0 .553.447 1 1 1zm6.967-4.398 1.703 2.129-.203.27h-3.419zm8-2.936 4 5.334h-8zm-13.967-11.663h20v16.375l-5.233-6.978c-.029-.039-.071-.061-.105-.094-.034-.034-.056-.077-.095-.106-.016-.012-.035-.014-.052-.024-.061-.04-.125-.065-.191-.091-.056-.021-.107-.046-.165-.058-.066-.013-.131-.011-.198-.01-.062 0-.121-.003-.181.009-.062.012-.117.038-.176.062-.064.024-.126.049-.185.088-.017.011-.036.013-.052.024-.039.029-.061.072-.095.106-.034.033-.076.055-.105.094l-4.258 5.677-2.161-2.702c-.024-.03-.059-.044-.085-.07-.026-.027-.041-.062-.071-.086-.025-.021-.056-.024-.082-.042-.056-.036-.111-.064-.172-.089-.062-.024-.121-.046-.185-.058-.063-.012-.123-.015-.187-.015s-.124.003-.187.015-.122.033-.184.058-.117.052-.173.089c-.026.018-.057.021-.082.042-.03.024-.045.059-.071.086-.026.026-.062.041-.085.07l-3.7 4.625h-1.485v-16.997z"/><path d="m24.496 18.993c1.379 0 2.5-1.121 2.5-2.5s-1.121-2.5-2.5-2.5-2.5 1.121-2.5 2.5 1.121 2.5 2.5 2.5zm0-3c.275 0 .5.225.5.5s-.225.5-.5.5-.5-.225-.5-.5.225-.5.5-.5z"/><path d="m40.998 31.993h-21.998c-.553 0-1 .447-1 1s.447 1 1 1h21.998c.553 0 1-.447 1-1s-.447-1-1-1z"/><path d="m40.998 34.993h-21.998c-.553 0-1 .447-1 1s.447 1 1 1h21.998c.553 0 1-.447 1-1s-.447-1-1-1z"/><path d="m40.998 37.993h-21.998c-.553 0-1 .447-1 1s.447 1 1 1h21.998c.553 0 1-.447 1-1s-.447-1-1-1z"/><path d="m34.934 44.62c-.051-.123-.124-.234-.217-.326l-1.999-1.999c-.391-.391-1.023-.391-1.414 0s-.391 1.023 0 1.414l.293.293h-3.589c-.553 0-1 .447-1 1s.447 1 1 1h3.589l-.293.293c-.391.391-.391 1.023 0 1.414.195.195.451.293.707.293s.512-.098.707-.293l1.999-1.999c.093-.092.166-.203.217-.326.101-.244.101-.52 0-.764z"/><path d="m25.002 44.002h-3.589l.293-.293c.391-.391.391-1.023 0-1.414s-1.023-.391-1.414 0l-1.999 1.999c-.093.092-.166.203-.217.326-.102.244-.102.52 0 .764.051.123.124.234.217.326l1.999 1.999c.195.195.451.293.707.293s.512-.098.707-.293c.391-.391.391-1.023 0-1.414l-.293-.293h3.589c.553 0 1-.447 1-1s-.447-1-1-1z"/></svg>