<svg height="512pt" viewBox="-30 0 512 512" width="512pt" xmlns="http://www.w3.org/2000/svg"><path d="m366.933594 512c-47.050782 0-85.332032-38.28125-85.332032-85.332031v-76.757813c0-23.554687 19.15625-42.710937 42.710938-42.710937h85.246094c23.550781 0 42.710937 19.15625 42.710937 42.710937v76.757813c0 47.050781-38.28125 85.332031-85.335937 85.332031zm-42.621094-187.734375c-14.140625 0-25.644531 11.503906-25.644531 25.644531v76.757813c0 37.640625 30.625 68.265625 68.265625 68.265625s68.269531-30.625 68.269531-68.265625v-76.757813c0-14.140625-11.503906-25.644531-25.644531-25.644531zm0 0"/><path d="m366.933594 418.132812c-14.113282 0-25.597656-11.484374-25.597656-25.597656v-17.070312c0-14.113282 11.484374-25.597656 25.597656-25.597656 14.117187 0 25.601562 11.484374 25.601562 25.597656v17.070312c0 14.113282-11.484375 25.597656-25.601562 25.597656zm0-51.199218c-4.707032 0-8.53125 3.824218-8.53125 8.53125v17.070312c0 4.707032 3.824218 8.53125 8.53125 8.53125 4.710937 0 8.535156-3.824218 8.535156-8.53125v-17.070312c0-4.707032-3.824219-8.53125-8.535156-8.53125zm0 0"/><path d="m358.402344 315.734375h17.066406v42.664063h-17.066406zm0 0"/><path d="m179.203125 204.800781h-170.667969c-3.730468 0-7.023437-2.414062-8.140625-5.964843-1.117187-3.550782.195313-7.425782 3.242188-9.558594l85.332031-59.734375c2.9375-2.046875 6.855469-2.046875 9.789062 0l85.332032 59.734375c3.046875 2.132812 4.363281 6.007812 3.246094 9.558594-1.109376 3.550781-4.40625 5.964843-8.132813 5.964843zm-143.601563-17.066406h116.523438l-58.257812-40.78125zm0 0"/><path d="m179.203125 204.800781c-1.714844 0-3.433594-.519531-4.890625-1.546875l-73.140625-51.199218c-2.277344-1.601563-3.644531-4.207032-3.644531-6.988282s1.359375-5.394531 3.644531-6.988281l73.140625-51.199219c2.609375-1.828125 6.007812-2.050781 8.832031-.574218 2.824219 1.460937 4.589844 4.378906 4.589844 7.5625v102.398437c0 3.183594-1.773437 6.101563-4.589844 7.570313-1.238281.648437-2.59375.964843-3.941406.964843zm-58.265625-59.734375 49.730469 34.808594v-69.617188zm0 0"/><path d="m8.535156 204.800781c-1.347656 0-2.695312-.316406-3.941406-.964843-2.816406-1.46875-4.59375-4.386719-4.59375-7.570313v-102.398437c0-3.183594 1.777344-6.101563 4.59375-7.570313 2.824219-1.476563 6.226562-1.246094 8.832031.574219l73.136719 51.199218c2.28125 1.601563 3.644531 4.207032 3.644531 6.988282s-1.355469 5.394531-3.644531 6.988281l-73.136719 51.199219c-1.460937 1.035156-3.167969 1.554687-4.890625 1.554687zm8.535156-94.542969v69.617188l49.730469-34.808594zm0 0"/><path d="m106.0625 153.601562c-1.714844 0-3.421875-.523437-4.890625-1.546874l-7.304687-5.101563-7.292969 5.109375c-2.9375 2.050781-6.855469 2.050781-9.789063 0l-56.074218-39.25c-2.285157-1.605469-3.640626-4.207031-3.640626-7v-97.277344c0-4.722656 3.820313-8.535156 8.53125-8.535156h136.535157c4.707031 0 8.53125 3.8125 8.53125 8.535156v97.277344c0 2.78125-1.355469 5.394531-3.644531 6.988281l-56.070313 39.253907c-1.46875 1.023437-3.175781 1.546874-4.890625 1.546874zm-12.195312-25.601562c1.714843 0 3.421874.519531 4.890624 1.542969l7.296876 5.113281 47.546874-33.28125v-84.308594h-119.464843v84.308594l47.539062 33.273438 7.292969-5.113282c1.476562-1.015625 3.183594-1.535156 4.898438-1.535156zm0 0"/><path d="m110.933594 59.734375h-34.132813c-4.710937 0-8.53125-3.816406-8.53125-8.535156s3.820313-8.53125 8.53125-8.53125h34.132813c4.710937 0 8.535156 3.8125 8.535156 8.53125s-3.824219 8.535156-8.535156 8.535156zm0 0"/><path d="m128 93.867188h-68.265625c-4.710937 0-8.53125-3.816407-8.53125-8.535157s3.820313-8.53125 8.53125-8.53125h68.265625c4.710938 0 8.535156 3.8125 8.535156 8.53125s-3.824218 8.535157-8.535156 8.535157zm0 0"/><path d="m162.136719 452.265625c-8.304688 0-16.472657-1.3125-24.261719-3.914063-4.472656-1.488281-6.886719-6.316406-5.402344-10.796874 1.492188-4.460938 6.324219-6.894532 10.796875-5.390626 9.394531 3.113282 19.746094 3.847657 29.472657 2.089844 4.625-.835937 9.070312 2.25 9.90625 6.894532.835937 4.632812-2.242188 9.070312-6.886719 9.90625-4.445313.800781-9.035157 1.210937-13.625 1.210937zm49.125-20.863281c-2.132813 0-4.265625-.792969-5.929688-2.390625-3.390625-3.273438-3.484375-8.675781-.214843-12.066407 6.945312-7.199218 12.007812-16.074218 14.636718-25.667968 1.246094-4.539063 5.9375-7.191406 10.476563-5.980469 4.550781 1.246094 7.226562 5.9375 5.984375 10.488281-3.382813 12.339844-9.882813 23.765625-18.816406 33.015625-1.675782 1.722657-3.902344 2.601563-6.136719 2.601563zm-104.5-7.464844c-2.644531 0-5.257813-1.230469-6.929688-3.542969-7.523437-10.417969-12.328125-22.648437-13.917969-35.371093-.578124-4.675782 2.742188-8.933594 7.417969-9.515626 4.667969-.679687 8.933594 2.730469 9.523438 7.417969 1.226562 9.871094 4.964843 19.378907 10.808593 27.484375 2.757813 3.816406 1.894532 9.148438-1.925781 11.914063-1.496093 1.082031-3.242187 1.613281-4.976562 1.613281zm123.640625-64.316406c-4.710938 0-8.535156-3.816406-8.535156-8.535156v-34.132813c0-4.71875 3.824218-8.53125 8.535156-8.53125 4.710937 0 8.53125 3.8125 8.53125 8.53125v34.132813c0 4.710937-3.820313 8.535156-8.53125 8.535156zm-136.535156-9.753906c-4.710938 0-8.53125-3.816407-8.53125-8.535157v-34.132812c0-4.71875 3.820312-8.53125 8.53125-8.53125 4.710937 0 8.535156 3.8125 8.535156 8.53125v34.132812c0 4.71875-3.824219 8.535157-8.535156 8.535157zm273.066406-59.734376c-4.707032 0-8.53125-3.8125-8.53125-8.53125v-19.492187c0-4.71875 3.824218-8.53125 8.53125-8.53125 4.710937 0 8.535156 3.8125 8.535156 8.53125v19.492187c0 4.71875-3.824219 8.53125-8.535156 8.53125zm-136.53125-7.3125c-4.710938 0-8.535156-3.8125-8.535156-8.535156v-34.132812c0-4.71875 3.824218-8.53125 8.535156-8.53125 4.710937 0 8.53125 3.8125 8.53125 8.53125v34.132812c0 4.710938-3.820313 8.535156-8.53125 8.535156zm-136.535156-9.753906c-4.710938 0-8.53125-3.8125-8.53125-8.53125v-34.136718c0-4.71875 3.820312-8.53125 8.53125-8.53125 4.710937 0 8.535156 3.8125 8.535156 8.53125v34.136718c0 4.71875-3.824219 8.53125-8.535156 8.53125zm273.066406-45.089844c-4.707032 0-8.53125-3.8125-8.53125-8.535156v-34.132812c0-4.71875 3.824218-8.53125 8.53125-8.53125 4.710937 0 8.535156 3.8125 8.535156 8.53125v34.132812c0 4.722656-3.824219 8.535156-8.535156 8.535156zm-136.53125-21.957031c-4.710938 0-8.535156-3.8125-8.535156-8.53125v-34.132812c0-4.722657 3.824218-8.535157 8.535156-8.535157 4.710937 0 8.53125 3.8125 8.53125 8.535157v34.132812c0 4.710938-3.820313 8.53125-8.53125 8.53125zm136.480468-54.851562c-4.574218 0-8.363281-3.625-8.523437-8.234375-.351563-9.984375-3.21875-19.78125-8.304687-28.332032-2.40625-4.050781-1.074219-9.28125 2.980468-11.691406 4.042969-2.421875 9.285156-1.082031 11.699219 2.980469 6.542969 11.007813 10.238281 23.609375 10.691406 36.445313.164063 4.710937-3.523437 8.671874-8.234375 8.824218-.101562.007813-.207031.007813-.308594.007813zm-132.1875-21.445313c-.992187 0-2-.179687-2.980468-.535156-4.410156-1.640625-6.65625-6.5625-5.007813-10.976562 4.472657-11.988282 11.972657-22.773438 21.683594-31.195313 3.558594-3.089844 8.949219-2.6875 12.039063.859375 3.089843 3.558594 2.707031 8.953125-.859376 12.042969-7.5625 6.550781-13.398437 14.941406-16.871093 24.269531-1.289063 3.421875-4.550781 5.535156-8.003907 5.535156zm91.238282-38.730468c-1.144532 0-2.296875-.222657-3.40625-.710938-9.140625-3.984375-19.164063-5.5625-29.183594-4.707031-4.683594.433593-8.832031-3.066407-9.242188-7.757813-.410156-4.695312 3.0625-8.832031 7.757813-9.242187 12.6875-1.144531 25.726563.929687 37.496094 6.058593 4.316406 1.886719 6.296875 6.921876 4.410156 11.230469-1.40625 3.207031-4.546875 5.128907-7.832031 5.128907zm0 0"/><path d="m384 460.800781h-34.132812c-4.710938 0-8.53125-3.816406-8.53125-8.535156s3.820312-8.53125 8.53125-8.53125h34.132812c4.710938 0 8.535156 3.8125 8.535156 8.53125s-3.824218 8.535156-8.535156 8.535156zm0 0"/></svg>