<svg id="icons" enable-background="new 0 0 64 64" height="512" viewBox="0 0 64 64" width="512" xmlns="http://www.w3.org/2000/svg"><path d="m61 3.998h-58c-1.654 0-3 1.346-3 3v52.004c0 .553.447 1 1 1h62c.553 0 1-.447 1-1v-52.004c0-1.654-1.346-3-3-3zm-59 6h60v48.004h-60zm1-4h1.02c-.552 0-.994.447-.994 1s.452 1 1.005 1c.552 0 1-.447 1-1s-.448-1-1-1h2.988c-.552 0-.994.447-.994 1s.452 1 1.005 1c.552 0 1-.447 1-1s-.448-1-1-1h2.992c-.552 0-.994.447-.994 1s.452 1 1.005 1c.552 0 1-.447 1-1s-.448-1-1-1h50.967c.552 0 1 .448 1 1v1h-51.968-3.003-2.999-2.03v-1c0-.552.448-1 1-1z"/><path d="m58.999 18.004h-22.996v-5.007c0-.553-.447-1-1-1h-15.001-15.001c-.553 0-1 .447-1 1v6.007 35.993c0 .553.447 1 1 1h53.998c.553 0 1-.447 1-1v-35.993c0-.553-.447-1-1-1zm-24.996 0h-13.001v-4.007h13.001zm-28.002 35.993v-34.993-5.007h13.001v5.007c0 .553.447 1 1 1h37.997v33.993z"/><path d="m24.003 17h7c.553 0 1-.447 1-1s-.447-1-1-1h-7c-.553 0-1 .447-1 1s.447 1 1 1z"/><path d="m8.988 17h7c.553 0 1-.447 1-1s-.447-1-1-1h-7c-.553 0-1 .447-1 1s.448 1 1 1z"/><path d="m29.997 21.998h-21.004c-.553 0-1 .447-1 1v28.004c0 .039.018.071.022.109.004.042.014.081.024.122.021.089.049.171.093.249.018.03.038.058.059.087.056.079.117.146.193.206.014.011.02.027.034.037.024.018.053.024.079.039.055.032.106.063.167.084.081.029.164.043.248.051.028.002.052.016.08.016h21.004c.011 0 .02-.006.029-.006.108-.003.215-.025.319-.064.042-.016.077-.038.116-.059.042-.022.087-.036.126-.064.021-.016.031-.038.051-.055.051-.044.093-.093.134-.146.042-.053.081-.104.11-.164.024-.049.04-.1.056-.152.023-.075.041-.148.046-.228.002-.021.013-.04.013-.062v-28.004c.001-.553-.446-1-.999-1zm-1 2v23.923l-6.188-8.511c-.032-.044-.078-.069-.115-.106s-.062-.083-.105-.114c-.012-.009-.025-.01-.037-.018-.063-.042-.132-.065-.201-.092-.054-.02-.104-.047-.158-.058-.063-.013-.127-.007-.191-.007s-.128-.006-.191.007c-.055.011-.104.038-.158.058-.069.026-.138.05-.201.092-.012.008-.025.009-.037.018-.044.031-.068.077-.105.114s-.083.063-.115.106l-4.661 6.411-1.717-2.403c-.033-.046-.08-.072-.119-.111s-.066-.088-.113-.121c-.01-.007-.021-.008-.032-.015-.062-.041-.13-.063-.198-.088-.054-.021-.104-.05-.159-.06-.067-.014-.135-.007-.203-.006-.06.001-.117-.007-.176.005-.062.012-.117.042-.176.065-.063.025-.127.045-.185.083-.011.007-.022.007-.033.015-.048.034-.075.083-.115.123-.038.039-.085.064-.117.109l-3.193 4.471v-23.89zm-18.057 26.004 3.06-4.283 1.29 1.807-1.801 2.477h-2.549zm11.06-8.304 6.038 8.304h-12.076z"/><path d="m15.001 31.998c1.654 0 3-1.346 3-3s-1.346-3-3-3-3 1.346-3 3 1.346 3 3 3zm0-4c.552 0 1 .448 1 1s-.448 1-1 1-1-.448-1-1 .448-1 1-1z"/><path d="m55 24.992h-20.999c-.553 0-1 .447-1 1s.447 1 1 1h20.999c.553 0 1-.447 1-1s-.447-1-1-1z"/><path d="m55 27.992h-20.999c-.553 0-1 .447-1 1s.447 1 1 1h20.999c.553 0 1-.447 1-1s-.447-1-1-1z"/><path d="m55 30.992h-20.999c-.553 0-1 .447-1 1s.447 1 1 1h20.999c.553 0 1-.447 1-1s-.447-1-1-1z"/><path d="m55 33.992h-20.999c-.553 0-1 .447-1 1s.447 1 1 1h20.999c.553 0 1-.447 1-1s-.447-1-1-1z"/><path d="m55 36.992h-20.999c-.553 0-1 .447-1 1s.447 1 1 1h20.999c.553 0 1-.447 1-1s-.447-1-1-1z"/><path d="m34.001 41.992h10.989c.553 0 1-.447 1-1s-.447-1-1-1h-10.989c-.553 0-1 .447-1 1s.447 1 1 1z"/><path d="m45 43.997h-11c-.553 0-1 .447-1 1v3c0 .553.447 1 1 1h11c.553 0 1-.447 1-1v-3c0-.553-.447-1-1-1zm-1 3h-9v-1h9z"/></svg>