<svg height="512pt" viewBox="-34 0 512 512.001" width="512pt" xmlns="http://www.w3.org/2000/svg"><path d="m37.613281 174.621094c-4.140625 0-7.5 3.355468-7.5 7.5v48.128906c0 4.140625 3.359375 7.5 7.5 7.5 4.144531 0 7.5-3.359375 7.5-7.5v-48.128906c0-4.144532-3.355469-7.5-7.5-7.5zm0 0"/><path d="m411.355469 126.671875-12.785157-4.304687c-2.0625-.6875-3.925781-1.871094-5.414062-3.4375-2.40625-2.515626-3.734375-5.832032-3.734375-9.339844v-13.722656l4.296875-2.621094c7.652344-4.664063 12.402344-13.128906 12.402344-22.089844v-22.652344c0-.027344 0-.054687 0-.078125v-19.765625c0-15.804687-12.84375-28.660156-28.628906-28.660156h-26.15625c-15.785157 0-28.628907 12.855469-28.628907 28.660156v17.042969.019531 25.433594c0 8.964844 4.75 17.429688 12.398438 22.089844l4.304687 2.625v13.71875c0 3.742187-1.566406 7.347656-4.289062 9.890625-.003906.003906-.003906.007812-.007813.007812-1.394531 1.296875-3.03125 2.269531-4.867187 2.882813l-12.769532 4.300781c-10.328124 3.476563-18.816406 10.304687-24.445312 19.027344-5.625-8.722657-14.113281-15.546875-24.441406-19.027344l-12.792969-4.304687c-2.078125-.695313-3.894531-1.847657-5.402344-3.425782-2.414062-2.527344-3.742187-5.847656-3.742187-9.347656v-13.722656l4.304687-2.625c7.644531-4.660156 12.398438-13.125 12.398438-22.089844v-22.652344c0-.027344 0-.054687 0-.078125v-19.765625c0-15.804687-12.84375-28.660156-28.628907-28.660156h-26.152343c-15.789063 0-28.632813 12.855469-28.632813 28.660156v17.042969.019531 25.433594c0 8.964844 4.753906 17.429688 12.398438 22.089844l4.3125 2.628906v13.714844c0 3.742187-1.570313 7.351562-4.308594 9.898437-1.398438 1.296875-3.03125 2.269531-4.851562 2.882813l-12.785157 4.300781c-10.324219 3.476563-18.8125 10.304687-24.4375 19.027344-5.628906-8.722657-14.117187-15.546875-24.445312-19.027344l-12.785157-4.304687c-2.078124-.695313-3.898437-1.847657-5.410156-3.433594-2.410156-2.515625-3.738281-5.835938-3.738281-9.34375v-13.722656l4.300781-2.621094c7.648438-4.660156 12.402344-13.125 12.402344-22.089844v-22.652344c0-.027344 0-.054687 0-.078125v-19.765625c-.003906-15.804687-12.84375-28.660156-28.632812-28.660156h-26.152344c-15.785156 0-28.628906 12.855469-28.628906 28.660156v17.042969.019531 25.433594c0 8.964844 4.75 17.429688 12.398437 22.089844l4.304687 2.625v13.71875c0 3.742187-1.570312 7.351562-4.296874 9.898437-1.394532 1.292969-3.035157 2.265625-4.867188 2.882813l-12.769531 4.300781c-19.109375 6.433594-31.949219 24.316406-31.949219 44.5v103.066406c0 18.171875 12.957031 33.375 30.113281 36.859375v167.277344c0 2.726562 1.460938 5.109375 3.640625 6.421875-2.3125 4.03125-3.640625 8.699219-3.640625 13.671875v4.226562c0 5.132813 4.175781 9.304688 9.304688 9.304688h36.574219c.617187 0 1.21875-.0625 1.804687-.179688.582031.117188 1.1875.179688 1.804687.179688h36.570313c5.132813 0 9.304687-4.171875 9.304687-9.304688v-4.226562c0-4.972656-1.328124-9.640625-3.636718-13.671875 2.175781-1.3125 3.636718-3.691406 3.636718-6.421875v-167.242188c9.855469-1.886718 18.429688-7.414062 24.261719-15.128906 5.433594 7.632813 13.636719 13.160156 23.140625 15.09375v167.277344c0 2.726562 1.460938 5.109375 3.636719 6.421875-2.308594 4.03125-3.636719 8.695313-3.636719 13.667969v4.230468c0 5.128907 4.171875 9.304688 9.304688 9.304688h36.574218c.617188 0 1.21875-.0625 1.800782-.179688.585937.117188 1.1875.179688 1.804687.179688h36.574219c5.132812 0 9.304688-4.175781 9.304688-9.304688v-4.230468c0-4.972656-1.328126-9.636719-3.640626-13.667969 2.179688-1.3125 3.640626-3.695313 3.640626-6.421875v-107.042969c0-4.140625-3.355469-7.5-7.5-7.5-4.140626 0-7.5 3.359375-7.5 7.5v99.542969h-25.179688v-158.875c0-4.140625-3.359375-7.5-7.5-7.5-4.144531 0-7.5 3.359375-7.5 7.5v158.875h-25.183594v-166.46875c0-.019531.003906-.035156.003906-.054688 0-.023437-.003906-.039062-.003906-.058593v-22.792969h65.363282v22.792969.058593.054688 38.84375c0 4.140625 3.359374 7.5 7.5 7.5 4.144531 0 7.5-3.359375 7.5-7.5v-32.117188c9.851562-1.890624 18.421874-7.414062 24.253906-15.128906 5.4375 7.632813 13.644531 13.164063 23.144531 15.09375v167.277344c0 2.726562 1.460937 5.109375 3.640625 6.421875-2.3125 4.03125-3.640625 8.695313-3.640625 13.667969v4.230468c0 5.128907 4.175781 9.304688 9.304687 9.304688h36.574219c.617188 0 1.222657-.0625 1.804688-.179688.585937.117188 1.1875.179688 1.804687.179688h36.574219c5.128906 0 9.304687-4.175781 9.304687-9.304688v-4.230468c0-4.972656-1.332031-9.636719-3.640624-13.667969 2.179687-1.3125 3.640624-3.695313 3.640624-6.421875v-167.242188c18.367188-3.519531 32.292969-19.695312 32.292969-39.074218v-100.886719c0-20.179687-12.835937-38.0625-31.945312-44.5zm-47.242188-5.222656c-4.003906.085937-7.976562-.246094-11.878906-.964844 1.414063-3.425781 2.175781-7.128906 2.175781-10.894531v-4.914063c3.207032 1.351563 6.601563 2.035157 10.003906 2.035157 3.402344 0 6.800782-.683594 10.007813-2.039063v4.917969c0 3.570312.660156 7.050781 1.910156 10.289062-4.007812.945313-8.089843 1.480469-12.21875 1.570313zm-12.777343-106.449219h26.15625c7.515624 0 13.628906 6.128906 13.628906 13.660156v9.445313l-35.574219-11.449219c-1.910156-.613281-3.988281-.4375-5.769531.492188l-12.070313 6.300781v-4.789063c0-7.53125 6.113281-13.660156 13.628907-13.660156zm-13.628907 35.371094 16.230469-8.472656 37.183594 11.964843v17.292969c0 3.769531-1.996094 7.324219-5.207032 9.285156l-15.871093 9.671875c-3.472657 2.117188-7.789063 2.117188-11.257813 0l-15.871094-9.671875c-3.210937-1.960937-5.207031-5.515625-5.207031-9.285156zm-116.515625 116.578125 8.753906 41.261719-8.847656 8.921874-7.851562-8.753906zm.15625-45.5c-4 .085937-7.96875-.25-11.875-.964844 1.414063-3.425781 2.179688-7.128906 2.179688-10.894531v-4.914063c3.199218 1.351563 6.597656 2.035157 9.996094 2.035157 3.398437 0 6.796874-.683594 10.003906-2.035157v4.914063c0 3.570312.660156 7.046875 1.914062 10.289062-4.007812.945313-8.089844 1.480469-12.21875 1.570313zm-12.773437-106.449219h26.152343c7.515626 0 13.628907 6.128906 13.628907 13.660156v9.445313l-35.574219-11.449219c-1.910156-.613281-3.988281-.4375-5.769531.492188l-12.070313 6.300781v-4.789063c0-7.53125 6.113282-13.660156 13.632813-13.660156zm-13.632813 35.371094 16.230469-8.472656 37.183594 11.964843v17.292969c0 3.769531-1.996094 7.324219-5.207031 9.285156l-15.867188 9.671875c-3.476562 2.117188-7.789062 2.117188-11.261719 0l-15.871093-9.671875c-3.210938-1.960937-5.207032-5.515625-5.207032-9.285156zm-116.511718 116.574218 8.75 41.265626-8.847657 8.921874-7.851562-8.753906zm.15625-45.496093c-3.996094.085937-7.96875-.25-11.882813-.96875 1.417969-3.425781 2.179687-7.125 2.179687-10.890625v-4.917969c3.203126 1.355469 6.601563 2.039063 10.003907 2.039063 3.402343 0 6.800781-.683594 10.003906-2.039063v4.917969c0 3.570312.660156 7.046875 1.910156 10.289062-4.003906.945313-8.089843 1.480469-12.214843 1.570313zm-12.777344-106.449219h26.152344c7.515624 0 13.628906 6.128906 13.628906 13.660156v9.445313l-35.570313-11.449219c-1.910156-.613281-3.988281-.4375-5.769531.492188l-12.070312 6.300781v-4.789063c0-7.53125 6.113281-13.660156 13.628906-13.660156zm-13.628906 35.371094 16.230468-8.472656 37.179688 11.964843v17.292969c0 3.769531-1.992188 7.324219-5.207032 9.285156l-15.867187 9.671875c-3.472656 2.117188-7.789063 2.117188-11.261719 0l-15.871094-9.671875c-3.210937-1.960937-5.203124-5.515625-5.203124-9.285156zm58.300781 420.503906h-25.183594v-158.875c0-4.140625-3.355469-7.5-7.5-7.5s-7.5 3.359375-7.5 7.5v158.875h-25.183594v-189.375h65.367188zm-65.28125 26.125c.730469-6.253906 6.058593-11.125 12.507812-11.125 6.445313 0 11.777344 4.871094 12.503907 11.125zm40.183593 0c.726563-6.253906 6.058594-11.125 12.503907-11.125 6.449219 0 11.777343 4.871094 12.507812 11.125zm40.097657-201.3125v-113.566406c0-4.144532-3.359375-7.5-7.5-7.5-4.144531 0-7.5 3.355468-7.5 7.5v84.378906h-65.367188v-6.25c0-4.140625-3.355469-7.5-7.5-7.5-4.140625 0-7.5 3.359375-7.5 7.5v35.316406c-8.792969-3.097656-15.113281-11.488281-15.113281-21.328125v-103.066406c0-13.738281 8.734375-25.90625 21.734375-30.285156l12.773437-4.296875c2.371094-.800782 4.59375-1.886719 6.640626-3.246094 4.242187 1.273438 8.566406 2.15625 12.945312 2.644531l-14.042969 73.214844c-.441406 2.300781.21875 4.675781 1.78125 6.417969l15.644531 17.445312c1.378907 1.539063 3.328126 2.4375 5.394532 2.488282.0625.003906.125.003906.1875.003906 1.996094 0 3.914062-.796875 5.324218-2.21875l17.300782-17.441406c1.78125-1.796876 2.539062-4.367188 2.015625-6.839844l-15.546875-73.273438c4.574218-.613281 9.082031-1.65625 13.488281-3.125 2.324219 1.683594 4.90625 3.015625 7.628906 3.925782l12.769531 4.300781c13 4.378906 21.734376 16.546875 21.734376 30.28125v100.890625c0 11.058594-7.277344 20.445312-17.292969 23.628906zm62.484375 201.3125c.730468-6.253906 6.058594-11.125 12.503906-11.125 6.449219 0 11.78125 4.871094 12.507812 11.125zm40.183594 0c.726562-6.253906 6.058593-11.125 12.503906-11.125 6.445312 0 11.777344 4.871094 12.507812 11.125zm40.097656-201.3125v-113.566406c0-4.144532-3.359375-7.5-7.5-7.5-4.144532 0-7.5 3.355468-7.5 7.5v84.378906h-65.367188v-84.378906c0-4.144532-3.355468-7.5-7.5-7.5-4.140625 0-7.5 3.355468-7.5 7.5v113.445312c-8.789062-3.101562-15.105468-11.488281-15.105468-21.328125v-103.066406c0-13.738281 8.726562-25.910156 21.722656-30.285156l12.78125-4.300781c2.371094-.796876 4.585937-1.882813 6.636718-3.242188 4.242188 1.273438 8.566407 2.152344 12.945313 2.644531l-14.042969 73.214844c-.441406 2.300781.21875 4.675781 1.78125 6.417969l15.644532 17.445312c1.378906 1.539063 3.328124 2.4375 5.394531 2.488282.0625.003906.125.003906.1875.003906 1.996093 0 3.914062-.796875 5.324219-2.21875l17.300781-17.445313c1.78125-1.792969 2.535156-4.363281 2.011719-6.835937l-15.542969-73.273438c4.574219-.613281 9.078125-1.660156 13.484375-3.125 2.324218 1.683594 4.902344 3.015625 7.628906 3.925782l12.777344 4.300781c12.992187 4.375 21.726562 16.546875 21.726562 30.28125v100.890625c-.003906 11.054687-7.277344 20.441406-17.289062 23.628906zm127.761718 175.1875h-25.183593v-158.875c0-4.140625-3.355469-7.5-7.5-7.5s-7.5 3.359375-7.5 7.5v158.875h-25.183594v-189.375h65.367187zm-65.28125 26.125c.730469-6.253906 6.0625-11.125 12.507813-11.125s11.777344 4.871094 12.507813 11.125zm40.183594 0c.730469-6.253906 6.058594-11.125 12.507813-11.125 6.445312 0 11.777343 4.871094 12.503906 11.125zm57.390625-224.941406c0 11.058594-7.277343 20.445312-17.292969 23.628906v-113.566406c0-4.144532-3.355468-7.5-7.5-7.5-4.144531 0-7.5 3.355468-7.5 7.5v84.378906h-65.363281v-84.378906c0-4.144532-3.359375-7.5-7.5-7.5-4.144531 0-7.5 3.355468-7.5 7.5v113.445312c-8.792969-3.097656-15.113281-11.488281-15.113281-21.328125v-103.066406c0-13.738281 8.734375-25.90625 21.734375-30.285156l12.769531-4.296875c2.375-.800782 4.59375-1.886719 6.640625-3.246094 4.246094 1.273438 8.566407 2.15625 12.945313 2.644531l-14.042969 73.214844c-.441406 2.300781.21875 4.675781 1.78125 6.421875l15.644531 17.441406c1.378906 1.539063 3.332032 2.441406 5.394532 2.492188h.1875c2 0 3.917968-.796875 5.328124-2.21875l17.296876-17.441406c1.78125-1.792969 2.539062-4.367188 2.011718-6.835938l-1.789062-8.449219c-.859375-4.050781-4.835938-6.640625-8.894532-5.78125-4.050781.859375-6.640624 4.839844-5.78125 8.894531l.953126 4.484376-8.847657 8.921874-7.855469-8.753906 7.949219-41.433594 1.957031 9.230469c.859376 4.050781 4.84375 6.636719 8.894532 5.78125 4.050781-.859375 6.640625-4.84375 5.777344-8.894531l-7.90625-37.277344c4.570312-.613281 9.078124-1.65625 13.484374-3.125 2.320313 1.683594 4.902344 3.015625 7.632813 3.929688l12.769531 4.296875c13 4.378906 21.734375 16.550781 21.734375 30.285156zm0 0"/></svg>