<svg id="icons" enable-background="new 0 0 64 64" height="512" viewBox="0 0 64 64" width="512" xmlns="http://www.w3.org/2000/svg"><path d="m61 3.998h-58c-1.654 0-3 1.346-3 3v52.004c0 .553.447 1 1 1h62c.553 0 1-.447 1-1v-52.004c0-1.654-1.346-3-3-3zm-59 6h60v48.004h-60zm1-4h1.02c-.552 0-.994.447-.994 1s.452 1 1.005 1c.552 0 1-.447 1-1s-.448-1-1-1h2.988c-.552 0-.994.447-.994 1s.452 1 1.005 1c.552 0 1-.447 1-1s-.448-1-1-1h2.992c-.552 0-.994.447-.994 1s.452 1 1.005 1c.552 0 1-.447 1-1s-.448-1-1-1h50.967c.552 0 1 .448 1 1v1h-51.968-3.003-2.999-2.03v-1c0-.552.448-1 1-1z"/><path d="m8 37.008c-2.206 0-4 1.794-4 4s1.794 4 4 4 4-1.794 4-4-1.794-4-4-4zm0 6c-1.103 0-2-.897-2-2s.897-2 2-2 2 .897 2 2-.897 2-2 2z"/><path d="m59 28.009h-54c-.553 0-1 .447-1 1v4.999c0 .553.447 1 1 1h54c.553 0 1-.447 1-1v-4.999c0-.553-.447-1-1-1zm-3.707 2.29-.293.293-.293-.293c-.191-.191-.441-.286-.691-.29h1.969c-.251.004-.501.098-.692.29zm2.707 2.709h-52v-2.999h47.984c-.25.004-.5.099-.691.29-.391.391-.391 1.023 0 1.414l1 1c.195.195.451.293.707.293s.512-.098.707-.293l1-1c.391-.391.391-1.023 0-1.414-.191-.191-.441-.286-.691-.29h1.984z"/><path d="m8.03 40.007h-.01c-.552 0-.994.447-.994 1s.452 1 1.005 1c.552 0 1-.447 1-1s-.449-1-1.001-1z"/><path d="m59 11.999h-54c-.553 0-1 .447-1 1v4.999c0 .553.447 1 1 1h54c.553 0 1-.447 1-1v-4.999c0-.553-.447-1-1-1zm-1 4.999h-52v-2.999h52z"/><path d="m59 20h-54c-.553 0-1 .447-1 1v4.999c0 .553.447 1 1 1h54c.553 0 1-.447 1-1v-4.999c0-.553-.447-1-1-1zm-1 4.999h-52v-2.999h52z"/><path d="m15 40.007h13.992c.553 0 1-.447 1-1s-.447-1-1-1h-13.992c-.553 0-1 .447-1 1s.447 1 1 1z"/><path d="m22.985 42.007c0-.553-.447-1-1-1h-6.985c-.553 0-1 .447-1 1s.447 1 1 1h6.985c.553 0 1-.447 1-1z"/><path d="m42.004 41.008c0-2.206-1.794-4-4-4s-4 1.794-4 4 1.794 4 4 4 4-1.794 4-4zm-6 0c0-1.103.897-2 2-2s2 .897 2 2-.897 2-2 2-2-.898-2-2z"/><path d="m58.996 38.007h-13.992c-.553 0-1 .447-1 1s.447 1 1 1h13.992c.553 0 1-.447 1-1s-.447-1-1-1z"/><path d="m51.989 41.007h-6.985c-.553 0-1 .447-1 1s.447 1 1 1h6.985c.553 0 1-.447 1-1s-.447-1-1-1z"/><path d="m43.002 48.001c-.001 0-.001 0-.002 0h-22c-.001 0-.002.001-.003.001-2.202.003-3.993 1.795-3.993 3.998 0 2.204 1.791 3.996 3.993 3.999.001 0 .002.001.003.001h22 .002c2.203-.003 3.995-1.795 3.995-3.999 0-2.205-1.792-3.997-3.995-4zm-.004 5.999h-21.995c-1.103 0-1.999-.897-1.999-2s.896-1.999 1.999-1.999h21.995c1.103 0 1.999.897 1.999 2s-.896 1.999-1.999 1.999z"/><path d="m39 51h-14c-.553 0-1 .447-1 1s.447 1 1 1h14c.553 0 1-.447 1-1s-.447-1-1-1z"/></svg>