<svg id="icons" enable-background="new 0 0 64 64" height="512" viewBox="0 0 64 64" width="512" xmlns="http://www.w3.org/2000/svg"><path d="m61 3.998h-58c-1.654 0-3 1.346-3 3v52.004c0 .553.447 1 1 1h62c.553 0 1-.447 1-1v-52.004c0-1.654-1.346-3-3-3zm-59 6h60v48.004h-60zm1-4h1.02c-.552 0-.994.447-.994 1s.452 1 1.005 1c.552 0 1-.447 1-1s-.448-1-1-1h2.988c-.552 0-.994.447-.994 1s.452 1 1.005 1c.552 0 1-.447 1-1s-.448-1-1-1h2.992c-.552 0-.994.447-.994 1s.452 1 1.005 1c.552 0 1-.447 1-1s-.448-1-1-1h50.967c.552 0 1 .448 1 1v1h-51.968-3.003-2.999-2.03v-1c0-.552.448-1 1-1z"/><path d="m51.5 27.002c1.93 0 3.5-1.57 3.5-3.5s-1.57-3.5-3.5-3.5-3.5 1.57-3.5 3.5 1.57 3.5 3.5 3.5zm0-5c.827 0 1.5.673 1.5 1.5s-.673 1.5-1.5 1.5-1.5-.673-1.5-1.5.673-1.5 1.5-1.5z"/><path d="m35.486 23.502c0-1.93-1.57-3.5-3.5-3.5s-3.5 1.57-3.5 3.5 1.57 3.5 3.5 3.5 3.5-1.57 3.5-3.5zm-5 0c0-.827.673-1.5 1.5-1.5s1.5.673 1.5 1.5-.673 1.5-1.5 1.5-1.5-.673-1.5-1.5z"/><path d="m12.475 27.002c1.93 0 3.5-1.57 3.5-3.5s-1.57-3.5-3.5-3.5-3.5 1.57-3.5 3.5 1.57 3.5 3.5 3.5zm0-5c.827 0 1.5.673 1.5 1.5s-.673 1.5-1.5 1.5-1.5-.673-1.5-1.5.672-1.5 1.5-1.5z"/><path d="m18.998 28.002h-12.994c-.553 0-1 .447-1 1s.447 1 1 1h12.994c.553 0 1-.447 1-1s-.447-1-1-1z"/><path d="m44.002 29.002c0 .553.447 1 1 1h12.994c.553 0 1-.447 1-1s-.447-1-1-1h-12.994c-.553 0-1 .447-1 1z"/><path d="m38.484 28.002h-12.994c-.553 0-1 .447-1 1s.447 1 1 1h12.994c.553 0 1-.447 1-1s-.447-1-1-1z"/><path d="m36.502 32.002c0-.553-.447-1-1-1h-7.031c-.553 0-1 .447-1 1s.447 1 1 1h7.031c.553 0 1-.447 1-1z"/><path d="m56.002 32.002c0-.553-.447-1-1-1h-7.006c-.553 0-1 .447-1 1s.447 1 1 1h7.006c.553 0 1-.447 1-1z"/><path d="m17.002 32.002c0-.553-.447-1-1-1h-6.998c-.553 0-1 .447-1 1s.447 1 1 1h6.998c.553 0 1-.447 1-1z"/><path d="m48 38.499c0 1.93 1.57 3.5 3.5 3.5s3.5-1.57 3.5-3.5-1.57-3.5-3.5-3.5-3.5 1.57-3.5 3.5zm5 0c0 .827-.673 1.5-1.5 1.5s-1.5-.673-1.5-1.5.673-1.5 1.5-1.5 1.5.673 1.5 1.5z"/><path d="m28.486 38.499c0 1.93 1.57 3.5 3.5 3.5s3.5-1.57 3.5-3.5-1.57-3.5-3.5-3.5-3.5 1.57-3.5 3.5zm5 0c0 .827-.673 1.5-1.5 1.5s-1.5-.673-1.5-1.5.673-1.5 1.5-1.5 1.5.673 1.5 1.5z"/><path d="m8.975 38.499c0 1.93 1.57 3.5 3.5 3.5s3.5-1.57 3.5-3.5-1.57-3.5-3.5-3.5-3.5 1.57-3.5 3.5zm5 0c0 .827-.673 1.5-1.5 1.5s-1.5-.673-1.5-1.5.673-1.5 1.5-1.5 1.5.673 1.5 1.5z"/><path d="m18.998 42.999h-12.994c-.553 0-1 .447-1 1s.447 1 1 1h12.994c.553 0 1-.447 1-1s-.447-1-1-1z"/><path d="m57.996 42.999h-12.994c-.553 0-1 .447-1 1s.447 1 1 1h12.994c.553 0 1-.447 1-1s-.447-1-1-1z"/><path d="m39.484 43.999c0-.553-.447-1-1-1h-12.994c-.553 0-1 .447-1 1s.447 1 1 1h12.994c.553 0 1-.447 1-1z"/><path d="m28.471 45.999c-.553 0-1 .447-1 1s.447 1 1 1h7.031c.553 0 1-.447 1-1s-.447-1-1-1z"/><path d="m55.002 45.999h-7.006c-.553 0-1 .447-1 1s.447 1 1 1h7.006c.553 0 1-.447 1-1s-.447-1-1-1z"/><path d="m16.002 45.999h-6.998c-.553 0-1 .447-1 1s.447 1 1 1h6.998c.553 0 1-.447 1-1s-.447-1-1-1z"/><path d="m39.508 50.997h-15.012c-1.379 0-2.5 1.121-2.5 2.5s1.121 2.5 2.5 2.5h15.012c1.379 0 2.5-1.121 2.5-2.5s-1.121-2.5-2.5-2.5zm-15.012 3c-.275 0-.5-.225-.5-.5s.225-.5.5-.5h15.012c.275 0 .5.225.5.5s-.225.5-.5.5z"/><path d="m15.998 13.998h32.004c.553 0 1-.447 1-1s-.447-1-1-1h-32.004c-.553 0-1 .447-1 1s.447 1 1 1z"/><path d="m41 15.998c0-.553-.447-1-1-1h-16c-.553 0-1 .447-1 1s.447 1 1 1h16c.553 0 1-.447 1-1z"/></svg>