<svg id="icons" enable-background="new 0 0 64 64" height="512" viewBox="0 0 64 64" width="512" xmlns="http://www.w3.org/2000/svg"><path d="m61 3.998h-58c-1.654 0-3 1.346-3 3v52.004c0 .553.447 1 1 1h62c.553 0 1-.447 1-1v-52.004c0-1.654-1.346-3-3-3zm-59 6h60v48.004h-60zm1-4h1.02c-.552 0-.994.447-.994 1s.452 1 1.005 1c.552 0 1-.447 1-1s-.448-1-1-1h2.988c-.552 0-.994.447-.994 1s.452 1 1.005 1c.552 0 1-.447 1-1s-.448-1-1-1h2.992c-.552 0-.994.447-.994 1s.452 1 1.005 1c.552 0 1-.447 1-1s-.448-1-1-1h50.967c.552 0 1 .448 1 1v1h-51.968-3.003-2.999-2.03v-1c0-.552.448-1 1-1z"/><path d="m26 16.998h.153l.86 5.165c.008.045.031.082.045.124.016.053.029.103.054.151.032.066.075.122.12.179.031.039.059.078.095.112.058.054.125.092.193.13.038.021.071.049.112.065.115.046.237.074.366.074h.001 8 .001c.129 0 .251-.028.366-.074.041-.017.074-.044.112-.065.069-.038.136-.076.193-.13.037-.034.063-.073.095-.112.045-.057.088-.112.12-.179.024-.048.038-.099.054-.151.014-.042.037-.079.045-.124l.859-5.164h.156c.552 0 1-.447 1-1 0-.552-.447-1-1-1h-1.463l-1.704-2.555c-.307-.46-.93-.583-1.387-.277-.46.307-.584.928-.277 1.387l.964 1.445-4.266-.001.963-1.444c.307-.46.183-1.08-.277-1.387-.461-.306-1.081-.183-1.387.277l-1.702 2.554h-1.464c-.552 0-1 .447-1 1 0 .552.447 1 1 1zm9.152 4.001h-6.306l-.666-4.001 7.638.001z"/><path d="m8 34.997h5.001c.553 0 1-.447 1-1v-4.001c0-.553-.447-1-1-1h-1.501c0-.553-.447-1-1-1s-1 .447-1 1h-1.5c-.553 0-1 .447-1 1v4.001c0 .553.447 1 1 1zm1-4.001h.5v.001c0 .553.447 1 1 1s1-.447 1-1v-.001h.501v2.001h-3.001z"/><path d="m19.999 30.998h18c.553 0 1-.447 1-1s-.447-1-1-1h-18c-.553 0-1 .447-1 1s.447 1 1 1z"/><path d="m19.999 34h9.992c.553 0 1-.447 1-1s-.447-1-1-1h-9.992c-.553 0-1 .447-1 1s.447 1 1 1z"/><path d="m44.998 32.998h5c.553 0 1-.447 1-1s-.447-1-1-1h-5c-.553 0-1 .447-1 1s.447 1 1 1z"/><path d="m51.999 32.998c0 .553.447 1 1 1h1 .001c.002 0 .004-.001.006-.001.148-.001.286-.039.413-.098.009-.005.019-.003.027-.007.045-.022.073-.061.113-.088.06-.042.12-.079.169-.133.044-.047.072-.103.106-.157.033-.055.07-.104.094-.166.025-.067.032-.139.042-.211.007-.048.028-.09.028-.14 0-.011-.006-.02-.006-.03-.002-.066-.024-.13-.04-.195s-.023-.132-.052-.192c-.004-.009-.003-.02-.008-.029l-.363-.727c.275-.178.469-.474.469-.826 0-.553-.447-1-1-1h-1c-.012 0-.021.006-.032.007-.063.002-.124.023-.188.037-.067.016-.137.024-.198.054-.009.004-.02.003-.029.008-.045.022-.073.061-.112.088-.061.042-.121.079-.17.133-.044.047-.072.103-.106.157-.033.055-.07.104-.093.165-.026.068-.032.14-.043.212-.007.048-.028.09-.028.14 0 .011.006.02.006.03.002.066.024.13.04.196.016.065.023.131.052.19.004.01.003.021.008.03l.363.727c-.276.178-.469.474-.469.826z"/><path d="m5 49.006h54c.553 0 1-.447 1-1v-11.005-11.005c0-.553-.447-1-1-1h-54c-.553 0-1 .447-1 1v11.005 11.005c0 .553.447 1 1 1zm1-2v-9.005h52v9.005zm52-20.01v9.005h-52v-9.005z"/><path d="m13.001 40.001h-1.501c0-.553-.447-1-1-1s-1 .447-1 1h-1.5c-.553 0-1 .447-1 1v4.001c0 .553.447 1 1 1h5.001c.553 0 1-.447 1-1v-4.001c0-.553-.447-1-1-1zm-1 4.001h-3.001v-2.001h.5v.001c0 .553.447 1 1 1s1-.447 1-1v-.001h.501z"/><path d="m37.999 40.003h-18c-.553 0-1 .447-1 1s.447 1 1 1h18c.553 0 1-.447 1-1s-.447-1-1-1z"/><path d="m29.991 43.005h-9.992c-.553 0-1 .447-1 1s.447 1 1 1h9.992c.553 0 1-.447 1-1s-.447-1-1-1z"/><path d="m49.998 42.003h-5c-.553 0-1 .447-1 1s.447 1 1 1h5c.553 0 1-.447 1-1s-.447-1-1-1z"/><path d="m54.999 42.003c0-.553-.447-1-1-1h-1c-.012 0-.021.007-.034.007-.062.002-.12.023-.182.037-.069.016-.139.024-.202.054-.009.004-.02.003-.029.008-.045.022-.073.061-.112.088-.061.042-.121.079-.17.133-.044.047-.072.103-.106.157-.033.055-.07.104-.093.165-.026.068-.032.14-.043.212-.007.048-.028.09-.028.14 0 .011.006.02.006.03.002.066.024.13.04.196.016.065.023.131.052.19.004.01.003.021.008.03l.363.727c-.275.178-.469.474-.469.826 0 .553.447 1 1 1h1 .001c.002 0 .004-.001.006-.001.148-.001.286-.039.413-.098.009-.005.019-.002.027-.007.045-.022.073-.061.113-.088.06-.042.12-.079.169-.133.044-.047.072-.103.106-.157.033-.055.07-.104.094-.166.025-.067.032-.139.042-.211.007-.048.028-.09.028-.14 0-.011-.006-.02-.006-.03-.002-.066-.024-.13-.04-.195s-.023-.132-.052-.192c-.004-.009-.003-.02-.008-.029l-.363-.727c.276-.178.469-.474.469-.826z"/><path d="m55.003 51.998h-5c-.553 0-1 .447-1 1s.447 1 1 1h5c.553 0 1-.447 1-1s-.447-1-1-1z"/><path d="m59.976 54.138c.007-.048.028-.09.028-.14 0-.011-.006-.02-.006-.03-.002-.066-.024-.13-.04-.195s-.023-.132-.052-.192c-.004-.009-.003-.02-.008-.029l-.363-.727c.275-.178.469-.474.469-.826 0-.553-.447-1-1-1h-1c-.011 0-.021.006-.031.006-.065.002-.128.024-.193.039-.065.016-.133.024-.193.053-.009.004-.02.003-.029.008-.045.022-.073.061-.113.088-.06.042-.12.079-.169.133-.044.047-.072.103-.106.157-.033.055-.07.104-.094.165-.025.068-.031.14-.042.212-.007.048-.028.09-.028.14 0 .011.006.02.006.03.002.066.024.13.04.196.016.065.024.131.052.19.004.01.003.021.008.03l.363.727c-.275.178-.469.474-.469.826 0 .553.447 1 1 1h1 .001c.002 0 .004-.001.006-.001.148-.001.286-.039.413-.098.009-.005.019-.003.027-.007.045-.022.073-.061.113-.088.06-.042.12-.079.169-.133.044-.047.072-.103.106-.157.033-.055.07-.104.094-.166.024-.068.03-.139.041-.211z"/><path d="m28 50.998h-23c-.553 0-1 .447-1 1v3c0 .553.447 1 1 1h23c.553 0 1-.447 1-1v-3c0-.553-.447-1-1-1zm-22 2h18v1h-18zm21 1h-1v-1h1z"/></svg>