<svg id="icons" enable-background="new 0 0 64 64" height="512" viewBox="0 0 64 64" width="512" xmlns="http://www.w3.org/2000/svg"><path d="m61 3.998h-58c-1.654 0-3 1.346-3 3v52.004c0 .553.447 1 1 1h62c.553 0 1-.447 1-1v-52.004c0-1.654-1.346-3-3-3zm-3 54.004h-22.996v-1.995h22.996zm1-3.995h-24.996c-.553 0-1 .447-1 1v2.995h-2.012v-2.995c0-.553-.447-1-1-1h-24.996c-.553 0-1 .447-1 1v2.995h-1.996v-48.004h2.006v3.999c0 .553.447 1 1 1h24.996.001c.121 0 .242-.027.357-.072.044-.017.079-.043.119-.065.049-.027.102-.045.146-.081.015-.012.021-.028.034-.041.054-.048.094-.104.137-.162.035-.049.073-.094.099-.147.026-.055.039-.115.055-.176.019-.067.037-.132.041-.201.001-.019.011-.034.011-.054v-4h1.998v3.999c0 .553.447 1 1 1h24.996.001c.121 0 .242-.027.357-.072.044-.017.079-.043.119-.065.049-.027.102-.045.146-.081.015-.012.021-.028.034-.041.054-.048.094-.104.137-.162.035-.049.073-.094.099-.147.026-.055.039-.115.055-.176.019-.067.037-.132.041-.201.001-.019.011-.034.011-.054v-4h2.004v48.004h-2v-2.995c0-.553-.447-1-1-1zm-30.008 3.995h-22.996v-1.995h22.996zm.01-46.857-.916-1.146h.916zm-3.477-1.147 2.397 2.999h-11.833l2.396-2.999zm-11.996 2.999h-2.354l2.57-2.999h2.18zm-4.987 0h-2.536v-2.999h5.106zm49.454-1.852-.916-1.147h.916zm-3.476-1.147 2.397 2.999h-11.834l2.396-2.999zm-11.997 2.999h-2.354l2.57-2.999h2.18zm-4.987 0h-2.536v-2.999h5.106zm-34.536-6.999h1.02c-.552 0-.994.447-.994 1s.452 1 1.005 1c.552 0 1-.447 1-1s-.448-1-1-1h2.988c-.552 0-.994.447-.994 1s.452 1 1.005 1c.552 0 1-.447 1-1s-.448-1-1-1h2.992c-.552 0-.994.447-.994 1s.452 1 1.005 1c.552 0 1-.447 1-1s-.448-1-1-1h50.967c.552 0 1 .448 1 1v1h-51.968-3.003-2.999-2.03v-1c0-.552.448-1 1-1z"/><path d="m20.995 25h-16c-.553 0-1 .447-1 1v16.006c0 .553.447 1 1 1h16 .001c.118 0 .234-.027.349-.07.039-.015.072-.035.109-.055.04-.021.084-.034.122-.062.022-.016.033-.04.054-.058.054-.045.099-.096.142-.151.038-.05.074-.097.102-.15.029-.057.048-.115.066-.177.02-.066.034-.129.04-.197.002-.028.016-.052.016-.08v-16.006c-.001-.553-.448-1-1.001-1zm-15 2h14v11.885l-3.187-4.462c-.033-.046-.08-.072-.119-.111s-.066-.088-.113-.121c-.01-.007-.021-.008-.031-.015-.062-.04-.129-.062-.196-.088-.056-.021-.106-.05-.163-.061-.065-.013-.131-.006-.197-.006-.062.001-.121-.006-.182.005-.06.012-.114.042-.172.064-.064.025-.13.046-.188.085-.01.007-.022.008-.032.015-.047.033-.074.082-.114.122-.038.038-.085.064-.118.11l-2.663 3.729-1.204-1.721c-.035-.05-.085-.079-.127-.121-.041-.041-.069-.091-.119-.125-.007-.005-.015-.005-.021-.01-.066-.044-.141-.066-.215-.093-.049-.019-.095-.047-.146-.057-.063-.012-.127-.003-.191-.003s-.128-.009-.19.003c-.052.01-.099.039-.149.058-.072.026-.146.048-.211.092-.007.005-.016.005-.022.01-.049.034-.078.084-.119.125-.042.042-.092.071-.127.121l-3.202 4.574h-.482zm2.92 14.006 1.58-2.257.791 1.13-.806 1.127zm7.08-4.281 3.058 4.281h-6.115z"/><path d="m9.501 33.006c1.379 0 2.501-1.122 2.501-2.501s-1.122-2.501-2.501-2.501-2.501 1.122-2.501 2.501 1.122 2.501 2.501 2.501zm0-3.002c.276 0 .501.225.501.501s-.225.501-.501.501-.501-.225-.501-.501.225-.501.501-.501z"/><path d="m40 25h-16c-.553 0-1 .447-1 1v16.006c0 .553.447 1 1 1h16 .001c.118 0 .235-.027.349-.07.039-.015.072-.035.109-.055.04-.021.084-.034.122-.062.022-.016.033-.04.054-.058.054-.045.099-.096.142-.151.038-.05.074-.097.102-.15.029-.057.048-.115.066-.177.02-.066.034-.129.04-.197.001-.028.015-.052.015-.08v-16.006c0-.553-.447-1-1-1zm-15 2h14v11.885l-3.187-4.462c-.033-.046-.08-.072-.119-.111s-.066-.088-.113-.121c-.01-.007-.021-.008-.032-.015-.061-.04-.127-.061-.193-.087-.056-.021-.107-.051-.165-.062-.065-.013-.131-.006-.197-.006-.062.001-.121-.006-.181.005-.061.012-.117.043-.176.066-.063.024-.127.045-.185.083-.011.007-.022.007-.033.015-.048.034-.075.083-.115.123-.038.038-.085.064-.117.109l-2.663 3.729-1.204-1.721c-.034-.05-.085-.079-.126-.12s-.07-.091-.12-.126c-.007-.005-.016-.005-.022-.01-.064-.043-.138-.065-.21-.092-.051-.019-.098-.047-.15-.058-.063-.012-.126-.003-.19-.003s-.128-.009-.19.003c-.053.011-.1.039-.15.058-.072.026-.146.049-.21.092-.007.005-.016.005-.022.01-.049.034-.077.083-.118.124-.042.042-.093.071-.128.122l-3.202 4.574h-.482zm2.92 14.006 1.58-2.257.791 1.13-.806 1.127zm7.08-4.281 3.058 4.281h-6.115z"/><path d="m28.506 33.006c1.379 0 2.501-1.122 2.501-2.501s-1.122-2.501-2.501-2.501-2.501 1.122-2.501 2.501 1.122 2.501 2.501 2.501zm0-3.002c.276 0 .501.225.501.501s-.225.501-.501.501-.501-.225-.501-.501.224-.501.501-.501z"/><path d="m60.005 26c0-.553-.447-1-1-1h-16c-.553 0-1 .447-1 1v16.006c0 .553.447 1 1 1h16 .001c.118 0 .234-.027.349-.07.039-.015.072-.035.109-.055.04-.021.084-.034.122-.062.022-.016.033-.04.054-.058.054-.045.099-.096.142-.151.038-.05.074-.097.102-.15.029-.057.048-.115.066-.177.02-.066.034-.129.04-.197.002-.028.016-.052.016-.08v-16.006zm-16 1h14v11.885l-3.187-4.462c-.033-.046-.08-.072-.119-.111-.039-.04-.066-.088-.113-.121-.01-.007-.021-.008-.031-.015-.062-.04-.13-.063-.197-.088-.055-.021-.105-.05-.162-.061-.065-.013-.131-.006-.197-.006-.062.001-.121-.006-.182.005-.059.012-.113.042-.17.064-.065.025-.131.046-.19.085-.011.007-.022.008-.032.015-.047.033-.074.082-.114.122-.038.038-.085.064-.118.11l-2.663 3.729-1.204-1.721c-.035-.05-.085-.079-.127-.121-.041-.041-.069-.091-.119-.125-.007-.005-.015-.005-.021-.01-.066-.044-.142-.066-.215-.094-.05-.018-.096-.046-.146-.056-.063-.012-.127-.003-.191-.003s-.128-.009-.191.003c-.05.01-.096.038-.146.056-.073.027-.148.05-.215.094-.007.005-.015.005-.021.01-.049.034-.077.083-.117.123-.043.042-.094.072-.129.123l-3.202 4.574h-.479v-14.004zm2.92 14.006 1.58-2.257.791 1.13-.806 1.127zm7.08-4.281 3.058 4.281h-6.115z"/><path d="m47.511 33.006c1.379 0 2.501-1.122 2.501-2.501s-1.122-2.501-2.501-2.501-2.501 1.122-2.501 2.501 1.122 2.501 2.501 2.501zm0-3.002c.276 0 .501.225.501.501s-.225.501-.501.501-.501-.225-.501-.501.224-.501.501-.501z"/><path d="m29.71 45.297c-.391-.391-1.023-.391-1.414 0l-2 2c-.391.391-.391 1.023 0 1.414l2 2c.195.195.451.293.707.293s.512-.098.707-.293c.391-.391.391-1.023 0-1.414l-1.293-1.293 1.293-1.293c.391-.391.391-1.023 0-1.414z"/><path d="m35.707 45.297c-.391-.391-1.023-.391-1.414 0s-.391 1.023 0 1.414l1.293 1.293-1.293 1.293c-.391.391-.391 1.023 0 1.414.195.195.451.293.707.293s.512-.098.707-.293l2-2c.391-.391.391-1.023 0-1.414z"/><path d="m14.012 20.003h35.988c.553 0 1-.447 1-1s-.447-1-1-1h-35.988c-.553 0-1 .447-1 1s.447 1 1 1z"/><path d="m40 21.006h-15.988c-.553 0-1 .447-1 1s.447 1 1 1h15.988c.553 0 1-.447 1-1s-.447-1-1-1z"/></svg>