<svg id="icons" enable-background="new 0 0 64 64" height="512" viewBox="0 0 64 64" width="512" xmlns="http://www.w3.org/2000/svg"><path d="m61 3.998h-58c-1.654 0-3 1.346-3 3v52.004c0 .553.447 1 1 1h62c.553 0 1-.447 1-1v-52.004c0-1.654-1.346-3-3-3zm-59 6h29v48.004h-29zm31 0h29v48.004h-29zm-30-4h1.02c-.552 0-.994.447-.994 1s.452 1 1.005 1c.552 0 1-.447 1-1s-.448-1-1-1h2.988c-.552 0-.994.447-.994 1s.452 1 1.005 1c.552 0 1-.447 1-1s-.448-1-1-1h2.992c-.552 0-.994.447-.994 1s.452 1 1.005 1c.552 0 1-.447 1-1s-.448-1-1-1h50.967c.552 0 1 .448 1 1v1h-51.968-3.003-2.999-2.03v-1c0-.552.448-1 1-1z"/><path d="m16.5 29.997c3.032 0 5.5-2.467 5.5-5.499s-2.468-5.5-5.5-5.5-5.5 2.468-5.5 5.5 2.468 5.499 5.5 5.499zm0-8.999c1.93 0 3.5 1.57 3.5 3.5s-1.57 3.499-3.5 3.499-3.5-1.569-3.5-3.499 1.57-3.5 3.5-3.5z"/><path d="m16.5 26.997c1.379 0 2.5-1.121 2.5-2.499 0-1.379-1.121-2.5-2.5-2.5s-2.5 1.121-2.5 2.5c0 1.378 1.121 2.499 2.5 2.499zm0-2.999c.275 0 .5.225.5.5s-.225.499-.5.499-.5-.224-.5-.499.225-.5.5-.5z"/><path d="m5.999 34.999h21.002c.553 0 1-.447 1-1s-.447-1-1-1h-21.002c-.553 0-1 .447-1 1s.447 1 1 1z"/><path d="m5.999 37.999h21.002c.553 0 1-.447 1-1s-.447-1-1-1h-21.002c-.553 0-1 .447-1 1s.447 1 1 1z"/><path d="m11 38.999c-.553 0-1 .447-1 1s.447 1 1 1h11c.553 0 1-.447 1-1s-.447-1-1-1z"/><path d="m13.495 44h-6.003c-1.379 0-2.5 1.121-2.5 2.5s1.121 2.5 2.5 2.5h6.003c1.379 0 2.5-1.121 2.5-2.5s-1.121-2.5-2.5-2.5zm-6.003 3c-.275 0-.5-.225-.5-.5s.225-.5.5-.5h6.003c.275 0 .5.225.5.5s-.225.5-.5.5z"/><path d="m25.502 44h-6.003c-1.379 0-2.5 1.121-2.5 2.5s1.121 2.5 2.5 2.5h6.003c1.379 0 2.5-1.121 2.5-2.5s-1.121-2.5-2.5-2.5zm-6.003 3c-.275 0-.5-.225-.5-.5s.225-.5.5-.5h6.003c.275 0 .5.225.5.5s-.225.5-.5.5z"/><path d="m47.508 29.997c3.032 0 5.5-2.467 5.5-5.499s-2.468-5.5-5.5-5.5-5.5 2.468-5.5 5.5 2.468 5.499 5.5 5.499zm0-8.999c1.93 0 3.5 1.57 3.5 3.5s-1.57 3.499-3.5 3.499-3.5-1.569-3.5-3.499 1.57-3.5 3.5-3.5z"/><path d="m47.508 26.997c1.379 0 2.5-1.121 2.5-2.499 0-1.379-1.121-2.5-2.5-2.5s-2.5 1.121-2.5 2.5c0 1.378 1.121 2.499 2.5 2.499zm0-2.999c.275 0 .5.225.5.5s-.225.499-.5.499-.5-.224-.5-.499.224-.5.5-.5z"/><path d="m37.007 34.999h21.002c.553 0 1-.447 1-1s-.447-1-1-1h-21.002c-.553 0-1 .447-1 1s.447 1 1 1z"/><path d="m37.007 37.999h21.002c.553 0 1-.447 1-1s-.447-1-1-1h-21.002c-.553 0-1 .447-1 1s.447 1 1 1z"/><path d="m42.008 38.999c-.553 0-1 .447-1 1s.447 1 1 1h11c.553 0 1-.447 1-1s-.447-1-1-1z"/><path d="m44.503 44h-6.003c-1.379 0-2.5 1.121-2.5 2.5s1.121 2.5 2.5 2.5h6.003c1.379 0 2.5-1.121 2.5-2.5s-1.121-2.5-2.5-2.5zm-6.003 3c-.275 0-.5-.225-.5-.5s.225-.5.5-.5h6.003c.275 0 .5.225.5.5s-.225.5-.5.5z"/><path d="m56.51 44h-6.003c-1.379 0-2.5 1.121-2.5 2.5s1.121 2.5 2.5 2.5h6.003c1.379 0 2.5-1.121 2.5-2.5s-1.121-2.5-2.5-2.5zm-6.003 3c-.275 0-.5-.225-.5-.5s.225-.5.5-.5h6.003c.275 0 .5.225.5.5s-.225.5-.5.5z"/></svg>