<svg height="480pt" viewBox="-24 0 480 480" width="480pt" xmlns="http://www.w3.org/2000/svg"><path d="m8 128h32c3.667969 0 6.867188-2.496094 7.761719-6.054688l14.484375-57.945312h97.753906v360.9375l-56.992188 7.125c-4.003906.5-7.007812 3.902344-7.007812 7.9375v32c0 4.417969 3.582031 8 8 8h192c4.417969 0 8-3.582031 8-8v-32c0-4.035156-3.003906-7.4375-7.007812-7.9375l-56.992188-7.125v-360.9375h97.753906l14.484375 57.945312c.894531 3.558594 4.09375 6.054688 7.761719 6.054688h32c4.417969 0 8-3.582031 8-8v-112c0-4.417969-3.582031-8-8-8h-384c-4.417969 0-8 3.582031-8 8v112c0 4.417969 3.582031 8 8 8zm8-112h368v96h-17.753906l-14.484375-57.945312c-.894531-3.558594-4.09375-6.054688-7.761719-6.054688h-112c-4.417969 0-8 3.582031-8 8v376c0 4.035156 3.003906 7.4375 7.007812 7.9375l56.992188 7.125v16.9375h-176v-16.9375l56.992188-7.125c4.003906-.5 7.007812-3.902344 7.007812-7.9375v-376c0-4.417969-3.582031-8-8-8h-112c-3.667969 0-6.867188 2.496094-7.761719 6.054688l-14.484375 57.945312h-17.753906zm0 0"/><path d="m361.6875 171.089844-56 72c-1.585938 2.039062-2.089844 4.71875-1.351562 7.199218l20.992187 69.976563c-12.675781 1.355469-22.066406 12.40625-21.355469 25.136719.714844 12.730468 11.277344 22.664062 24.027344 22.597656v104c0 4.417969 3.582031 8 8 8h64c4.417969 0 8-3.582031 8-8v-104c12.71875.027344 23.238281-9.898438 23.949219-22.597656.710937-12.699219-8.632813-23.738282-21.277344-25.128906l20.992187-69.976563c.738282-2.476563.234376-5.160156-1.351562-7.199219l-56-72c-1.574219-1.855468-3.878906-2.925781-6.3125-2.925781-2.429688-.003906-4.738281 1.0625-6.3125 2.917969zm30.3125 292.910156h-48v-96h48zm24-120c0 4.417969-3.582031 8-8 8h-80c-4.417969 0-8-3.582031-8-8s3.582031-8 8-8h80c4.417969 0 8 3.582031 8 8zm-21.953125-24h-52.09375l-21.105469-70.34375 47.152344-60.625 47.152344 60.625zm0 0"/><path d="m344 256c0 13.253906 10.746094 24 24 24s24-10.746094 24-24-10.746094-24-24-24-24 10.746094-24 24zm32 0c0 4.417969-3.582031 8-8 8s-8-3.582031-8-8 3.582031-8 8-8 8 3.582031 8 8zm0 0"/></svg>