<?xml version="1.0" encoding="iso-8859-1"?>
<!-- Generator: Adobe Illustrator 19.0.0, SVG Export Plug-In . SVG Version: 6.00 Build 0)  -->
<svg version="1.1" id="Capa_1" xmlns="http://www.w3.org/2000/svg" xmlns:xlink="http://www.w3.org/1999/xlink" x="0px" y="0px"
	 viewBox="0 0 480 480" style="enable-background:new 0 0 480 480;" xml:space="preserve">
<g>
	<g>
		<path d="M423.251,166.86C414.402,72.273,334.999-0.027,239.998,0C138.378-0.034,55.971,82.318,55.937,183.938
			c-0.032,95.204,72.566,174.711,167.382,183.31l1.44-15.936c-92.4-8.428-160.474-90.165-152.046-182.565
			S162.878,8.273,255.278,16.701s160.473,90.165,152.046,182.565c-7.348,80.563-71.069,144.449-151.613,152.006l1.48,15.928
			C358.369,357.734,432.717,268.039,423.251,166.86z"/>
	</g>
</g>
<g>
	<g>
		<path d="M374.866,166.76c-9.527-74.504-77.648-127.178-152.152-117.651S95.535,126.757,105.063,201.261
			c7.883,61.643,56.548,110.102,118.224,117.723l1.952-15.888c-65.771-8.15-112.482-68.075-104.332-133.847
			c8.15-65.771,68.076-112.482,133.847-104.332s112.482,68.075,104.332,133.847c-6.742,54.409-49.503,97.33-103.887,104.276
			l2.016,15.872C331.718,309.385,384.393,241.264,374.866,166.76z"/>
	</g>
</g>
<g>
	<g>
		<path d="M247.998,464V206.528c12.497-4.418,19.046-18.131,14.627-30.627s-18.131-19.046-30.627-14.627
			s-19.046,18.131-14.627,30.627c2.416,6.835,7.793,12.211,14.627,14.627V464h-40v16h96v-16H247.998z M239.998,192
			c-4.418,0-8-3.582-8-8s3.582-8,8-8s8,3.582,8,8S244.417,192,239.998,192z"/>
	</g>
</g>
<g>
</g>
<g>
</g>
<g>
</g>
<g>
</g>
<g>
</g>
<g>
</g>
<g>
</g>
<g>
</g>
<g>
</g>
<g>
</g>
<g>
</g>
<g>
</g>
<g>
</g>
<g>
</g>
<g>
</g>
</svg>
