<svg height="512pt" viewBox="0 -89 512 512" width="512pt" xmlns="http://www.w3.org/2000/svg"><path d="m499.476562 43.085938c6.90625 0 12.523438-5.621094 12.523438-12.527344v-18.035156c0-6.90625-5.617188-12.523438-12.523438-12.523438h-19.039062c-6.90625 0-12.523438 5.617188-12.523438 12.523438v3.507812h-189.871093v-3.507812c0-6.90625-5.617188-12.523438-12.523438-12.523438h-19.039062c-6.90625 0-12.523438 5.617188-12.523438 12.523438v3.507812h-189.871093v-3.507812c0-6.90625-5.617188-12.523438-12.523438-12.523438h-19.039062c-6.90625 0-12.523438 5.617188-12.523438 12.523438v18.035156c0 6.90625 5.617188 12.527344 12.523438 12.527344h1.503906v102.699218h-1.503906c-6.90625 0-12.523438 5.617188-12.523438 12.523438v18.035156c0 6.90625 5.617188 12.523438 12.523438 12.523438h1.503906v102.703124h-1.503906c-6.90625 0-12.523438 5.617188-12.523438 12.523438v18.035156c0 6.90625 5.617188 12.523438 12.523438 12.523438h19.039062c6.566406 0 11.960938-5.082032 12.472656-11.519532h189.972656c.511719 6.4375 5.90625 11.519532 12.472657 11.519532h19.039062c6.566407 0 11.957031-5.082032 12.472657-11.519532h189.972656c.511718 6.4375 5.902344 11.519532 12.472656 11.519532h19.035156c6.90625 0 12.523438-5.617188 12.523438-12.523438v-18.035156c0-6.90625-5.617188-12.523438-12.523438-12.523438h-2.503906v-102.703124h2.507812c6.90625 0 12.523438-5.617188 12.523438-12.523438v-18.035156c0-6.90625-5.617188-12.523438-12.523438-12.523438h-2.507812v-102.699218zm-250.492187-28.054688h14.03125v13.023438h-14.03125zm-233.953125 0h14.027344v13.023438h-14.027344zm0 145.78125h14.027344v13.027344h-14.027344zm14.027344 158.8125h-14.027344v-13.027344h14.027344zm233.957031 0h-14.03125v-13.027344h14.03125zm218.925781-173.839844h-1.503906c-6.90625 0-12.523438 5.617188-12.523438 12.523438v18.035156c0 6.90625 5.617188 12.523438 12.523438 12.523438h1.503906v102.703124h-1.503906c-6.90625 0-12.523438 5.617188-12.523438 12.523438v4.007812h-189.871093v-4.007812c0-6.90625-5.617188-12.523438-12.523438-12.523438h-19.039062c-6.90625 0-12.523438 5.617188-12.523438 12.523438v4.007812h-189.871093v-4.007812c0-6.90625-5.617188-12.523438-12.523438-12.523438h-2.503906v-102.703124h2.503906c6.90625 0 12.523438-5.617188 12.523438-12.523438v-18.035156c0-6.90625-5.617188-12.523438-12.523438-12.523438h-2.503906v-102.699218h2.503906c6.734375 0 12.230469-5.351563 12.5-12.023438h189.921875c.265625 6.671875 5.761719 12.023438 12.496094 12.023438h19.039062c6.738281 0 12.234375-5.351563 12.5-12.023438h189.921875c.265625 6.671875 5.761719 12.023438 12.5 12.023438h1.5zm15.027344 173.839844h-14.027344v-13.027344h14.027344zm0-145.785156h-14.027344v-13.027344h14.027344zm-14.027344-145.785156v-13.023438h14.027344v13.023438zm0 0"/><path d="m436.738281 56.859375h-361.476562c-10.835938 0-19.652344 8.816406-19.652344 19.65625v181.625c0 10.835937 8.816406 19.652344 19.652344 19.652344h206.066406c4.152344 0 7.515625-3.363281 7.515625-7.515625 0-4.148438-3.363281-7.515625-7.515625-7.515625h-206.066406c-2.550781 0-4.625-2.074219-4.625-4.621094v-134.148437h370.726562v134.148437c0 2.546875-2.074219 4.621094-4.625 4.621094h-107.929687c-4.152344 0-7.515625 3.367187-7.515625 7.515625 0 4.152344 3.363281 7.515625 7.515625 7.515625h107.929687c10.835938 0 19.652344-8.816407 19.652344-19.652344v-181.625c0-10.839844-8.816406-19.65625-19.652344-19.65625zm4.625 52.101563h-370.726562v-32.445313c0-2.550781 2.074219-4.625 4.625-4.625h361.476562c2.546875 0 4.621094 2.074219 4.621094 4.625v32.445313zm0 0"/><path d="m107.710938 153.800781h5.675781c4.152343 0 7.515625-3.363281 7.515625-7.515625 0-4.148437-3.363282-7.515625-7.515625-7.515625h-5.675781c-12.429688 0-22.542969 10.113281-22.542969 22.546875v65.125c0 12.433594 10.113281 22.542969 22.542969 22.542969h96.1875c12.429687 0 22.542968-10.109375 22.542968-22.542969v-65.125c0-12.433594-10.113281-22.546875-22.542968-22.546875h-44.753907c-4.152343 0-7.515625 3.367188-7.515625 7.515625 0 4.152344 3.363282 7.515625 7.515625 7.515625h44.753907c4.144531 0 7.515624 3.371094 7.515624 7.515625v65.125c0 4.144532-3.371093 7.515625-7.515624 7.515625h-96.1875c-4.144532 0-7.515626-3.371093-7.515626-7.515625v-65.125c0-4.144531 3.371094-7.515625 7.515626-7.515625zm0 0"/><path d="m139.792969 222.023438c2.148437 0 4.300781-.566407 6.261719-1.699219l27.015624-15.597657c3.921876-2.265624 6.261719-6.320312 6.261719-10.847656s-2.339843-8.582031-6.261719-10.847656l-27.015624-15.597656c-3.921876-2.265625-8.605469-2.265625-12.527344 0-3.917969 2.265625-6.261719 6.320312-6.261719 10.847656v31.195312c0 4.53125 2.34375 8.585938 6.261719 10.847657 1.960937 1.132812 4.113281 1.699219 6.265625 1.699219zm2.503906-39.40625 19.5 11.261718-19.503906 11.257813v-22.519531zm0 0"/><path d="m252.992188 175.84375h28.335937c4.152344 0 7.515625-3.363281 7.515625-7.515625 0-4.148437-3.363281-7.515625-7.515625-7.515625h-28.335937c-4.148438 0-7.511719 3.367188-7.511719 7.515625 0 4.152344 3.363281 7.515625 7.511719 7.515625zm0 0"/><path d="m252.992188 204.910156h14.734374c4.152344 0 7.515626-3.363281 7.515626-7.511718 0-4.152344-3.363282-7.515626-7.515626-7.515626h-14.734374c-4.148438 0-7.511719 3.363282-7.511719 7.515626 0 4.148437 3.363281 7.511718 7.511719 7.511718zm0 0"/><path d="m415.0625 189.882812h-39.121094c-4.152344 0-7.515625 3.363282-7.515625 7.515626 0 4.148437 3.363281 7.511718 7.515625 7.511718h39.121094c4.148438 0 7.511719-3.363281 7.511719-7.511718 0-4.152344-3.363281-7.515626-7.511719-7.515626zm0 0"/><path d="m415.0625 160.8125h-97.800781c-4.148438 0-7.515625 3.367188-7.515625 7.515625 0 4.152344 3.367187 7.515625 7.515625 7.515625h97.800781c4.148438 0 7.511719-3.363281 7.511719-7.515625 0-4.148437-3.363281-7.515625-7.511719-7.515625zm0 0"/><path d="m414.058594 217.335938h-30.125c-4.152344 0-7.515625 3.363281-7.515625 7.515624 0 4.148438 3.363281 7.511719 7.515625 7.511719h30.125c4.152344 0 7.515625-3.363281 7.515625-7.511719 0-4.152343-3.363281-7.515624-7.515625-7.515624zm0 0"/><path d="m252.992188 232.363281h95.007812c4.148438 0 7.511719-3.363281 7.511719-7.511719 0-4.152343-3.363281-7.515624-7.511719-7.515624h-95.007812c-4.148438 0-7.511719 3.363281-7.511719 7.515624 0 4.148438 3.363281 7.511719 7.511719 7.511719zm0 0"/><path d="m292.699219 197.398438c0 4.148437 3.363281 7.511718 7.515625 7.511718h40.796875c4.152343 0 7.515625-3.363281 7.515625-7.511718 0-4.152344-3.363282-7.515626-7.515625-7.515626h-40.796875c-4.152344 0-7.515625 3.363282-7.515625 7.515626zm0 0"/></svg>