<svg height="512pt" viewBox="0 0 512.00051 512" width="512pt" xmlns="http://www.w3.org/2000/svg"><path d="m504.503906 38.3125c-2.292968 0-4.558594-1.046875-6.03125-3.03125l-11.394531-15.359375-11.988281 15.480469c-2.535156 3.277344-7.246094 3.875-10.519532 1.339844-3.277343-2.535157-3.878906-7.246094-1.34375-10.523438l18.046876-23.308594c1.421874-1.835937 3.613281-2.910156 5.933593-2.910156h.074219c2.347656.0234375 4.550781 1.148438 5.949219 3.03125l17.292969 23.308594c2.46875 3.328125 1.773437 8.027344-1.554688 10.496094-1.34375.996093-2.910156 1.476562-4.464844 1.476562zm0 0"/><path d="m63.460938 307.625c-10.175782 0-18.457032 8.28125-18.457032 18.457031v56.382813c0 10.175781 8.28125 18.457031 18.457032 18.457031h63.480468c10.179688 0 18.460938-8.28125 18.460938-18.457031v-56.382813c0-10.175781-8.28125-18.457031-18.460938-18.457031zm66.9375 18.457031v56.382813c0 1.902344-1.550782 3.453125-3.453126 3.453125h-63.484374c-1.902344 0-3.453126-1.550781-3.453126-3.453125v-56.382813c0-1.902343 1.550782-3.453125 3.453126-3.453125h63.480468c1.90625 0 3.457032 1.550782 3.457032 3.453125zm0 0"/><path d="m193.253906 307.625c-10.179687 0-18.460937 8.28125-18.460937 18.457031v56.382813c0 10.175781 8.28125 18.457031 18.460937 18.457031h63.480469c10.179687 0 18.460937-8.28125 18.460937-18.457031v-56.382813c0-10.175781-8.28125-18.457031-18.460937-18.457031zm66.9375 18.457031v56.382813c0 1.902344-1.550781 3.453125-3.457031 3.453125h-63.480469c-1.90625 0-3.457031-1.550781-3.457031-3.453125v-56.382813c0-1.902343 1.550781-3.453125 3.457031-3.453125h63.480469c1.90625 0 3.457031 1.550782 3.457031 3.453125zm0 0"/><path d="m386.523438 307.625h-63.480469c-10.179688 0-18.457031 8.28125-18.457031 18.457031v56.382813c0 10.175781 8.277343 18.457031 18.457031 18.457031h63.480469c10.179687 0 18.460937-8.28125 18.460937-18.457031v-56.382813c0-10.175781-8.28125-18.457031-18.460937-18.457031zm3.457031 74.835938c0 1.90625-1.550781 3.457031-3.457031 3.457031h-63.480469c-1.902344 0-3.453125-1.550781-3.453125-3.457031v-56.378907c0-1.90625 1.550781-3.453125 3.453125-3.453125h63.480469c1.90625 0 3.457031 1.546875 3.457031 3.453125zm0 0"/><path d="m399.960938 177.738281c4.144531 0 7.503906-3.355469 7.503906-7.5v-30.683593c0-11.414063-9.285156-20.703126-20.703125-20.703126h-323.539063c-11.414062 0-20.699218 9.289063-20.699218 20.703126v111.761718c0 11.414063 9.285156 20.699219 20.699218 20.699219h323.539063c11.417969 0 20.703125-9.285156 20.703125-20.699219v-34.34375c0-4.140625-3.359375-7.5-7.503906-7.5-4.144532 0-7.5 3.359375-7.5 7.5v34.34375c0 3.140625-2.558594 5.695313-5.699219 5.695313h-27.308594l-63.578125-71.644531c-2.351562-2.652344-5.734375-4.234376-9.277344-4.34375-3.535156-.101563-7.019531 1.273437-9.527344 3.777343l-32.484374 32.46875-44.53125-50.1875c-2.355469-2.652343-5.738282-4.234375-9.28125-4.339843-3.527344-.105469-7.015626 1.269531-9.527344 3.777343l-90.535156 90.492188h-27.488282c-3.140625 0-5.695312-2.554688-5.695312-5.695313v-111.761718c0-3.144532 2.554687-5.699219 5.695312-5.699219h323.539063c3.144531 0 5.699219 2.554687 5.699219 5.699219v30.683593c0 4.144531 3.355468 7.5 7.5 7.5zm-209.667969.953125 60.792969 68.507813c2.75 3.101562 7.492187 3.382812 10.589843.632812 3.097657-2.75 3.378907-7.488281.632813-10.589843l-7.746094-8.726563 31.554688-31.542969 53.277343 60.042969h-227.460937zm0 0"/><path d="m311.734375 479.347656h-27.007813c-4.144531 0-7.5 3.359375-7.5 7.5 0 4.144532 3.355469 7.5 7.5 7.5h27.007813c4.140625 0 7.5-3.355468 7.5-7.5 0-4.140625-3.359375-7.5-7.5-7.5zm0 0"/><path d="m419.753906 479.347656h-27.003906c-4.144531 0-7.5 3.359375-7.5 7.5 0 4.144532 3.355469 7.5 7.5 7.5h27.003906c4.144532 0 7.503906-3.355468 7.503906-7.5 0-4.140625-3.359374-7.5-7.503906-7.5zm0 0"/><path d="m257.722656 479.347656h-27.007812c-4.140625 0-7.5 3.359375-7.5 7.5 0 4.144532 3.359375 7.5 7.5 7.5h27.007812c4.144532 0 7.5-3.355468 7.5-7.5 0-4.140625-3.355468-7.5-7.5-7.5zm0 0"/><path d="m365.742188 479.347656h-27.003907c-4.144531 0-7.5 3.359375-7.5 7.5 0 4.144532 3.355469 7.5 7.5 7.5h27.003907c4.144531 0 7.503906-3.355468 7.503906-7.5 0-4.140625-3.359375-7.5-7.503906-7.5zm0 0"/><path d="m149.699219 479.347656h-27.003907c-4.144531 0-7.503906 3.359375-7.503906 7.5 0 4.144532 3.359375 7.5 7.503906 7.5h27.003907c4.144531 0 7.5-3.355468 7.5-7.5 0-4.140625-3.355469-7.5-7.5-7.5zm0 0"/><path d="m41.675781 479.347656h-12.457031l6.0625-4.496094c3.324219-2.46875 4.019531-7.167968 1.554688-10.496093-2.46875-3.328125-7.167969-4.023438-10.496094-1.554688l-23.308594 17.292969c-1.882812 1.398438-3.0078125 3.601562-3.03125 5.949219-.0234375 2.347656 1.050781 4.570312 2.910156 6.007812l23.308594 18.046875c1.367188 1.058594 2.980469 1.570313 4.585938 1.570313 2.242187 0 4.460937-1 5.9375-2.910157 2.535156-3.277343 1.9375-7.988281-1.339844-10.523437l-5.015625-3.886719h11.289062c4.144531 0 7.503907-3.355468 7.503907-7.5 0-4.140625-3.359376-7.5-7.503907-7.5zm0 0"/><path d="m95.6875 479.347656h-27.003906c-4.144532 0-7.503906 3.359375-7.503906 7.5 0 4.144532 3.359374 7.5 7.503906 7.5h27.003906c4.144531 0 7.503906-3.355468 7.503906-7.5 0-4.140625-3.359375-7.5-7.503906-7.5zm0 0"/><path d="m470.476562 478.097656c-1.882812.828125-3.890624 1.25-5.972656 1.25h-17.742187c-4.144531 0-7.503907 3.359375-7.503907 7.5 0 4.144532 3.359376 7.503906 7.503907 7.503906h17.742187c4.175782 0 8.222656-.851562 12.023438-2.527343 3.792968-1.667969 5.511718-6.097657 3.839844-9.886719-1.671876-3.792969-6.101563-5.511719-9.890626-3.839844zm0 0"/><path d="m203.710938 479.347656h-27.007813c-4.140625 0-7.5 3.359375-7.5 7.5 0 4.144532 3.359375 7.5 7.5 7.5h27.007813c4.140624 0 7.5-3.355468 7.5-7.5 0-4.140625-3.359376-7.5-7.5-7.5zm0 0"/><path d="m486.828125 320.808594c-4.144531 0-7.5 3.355468-7.5 7.5v27.003906c0 4.144531 3.355469 7.503906 7.5 7.503906s7.503906-3.359375 7.503906-7.503906v-27.003906c0-4.144532-3.359375-7.5-7.503906-7.5zm0 0"/><path d="m486.828125 428.828125c-4.144531 0-7.5 3.359375-7.5 7.503906v27.003907c0 4.144531 3.355469 7.5 7.5 7.5s7.503906-3.355469 7.503906-7.5v-27.003907c0-4.144531-3.359375-7.503906-7.503906-7.503906zm0 0"/><path d="m486.828125 104.761719c-4.144531 0-7.5 3.359375-7.5 7.5v27.007812c0 4.140625 3.355469 7.5 7.5 7.5s7.503906-3.359375 7.503906-7.5v-27.007812c0-4.140625-3.359375-7.5-7.503906-7.5zm0 0"/><path d="m486.828125 50.75c-4.144531 0-7.5 3.359375-7.5 7.503906v27.003906c0 4.144532 3.355469 7.5 7.5 7.5s7.503906-3.355468 7.503906-7.5v-27.003906c0-4.144531-3.359375-7.503906-7.503906-7.503906zm0 0"/><path d="m486.828125 0c-4.144531 0-7.5 3.359375-7.5 7.503906v23.742188c0 4.144531 3.355469 7.503906 7.5 7.503906s7.503906-3.359375 7.503906-7.503906v-23.742188c0-4.144531-3.359375-7.503906-7.503906-7.503906zm0 0"/><path d="m486.828125 158.773438c-4.144531 0-7.5 3.359374-7.5 7.5v27.007812c0 4.140625 3.355469 7.5 7.5 7.5s7.503906-3.359375 7.503906-7.5v-27.007812c0-4.140626-3.359375-7.5-7.503906-7.5zm0 0"/><path d="m486.828125 374.816406c-4.144531 0-7.5 3.359375-7.5 7.503906v27.003907c0 4.144531 3.355469 7.503906 7.5 7.503906s7.503906-3.359375 7.503906-7.503906v-27.003907c0-4.144531-3.359375-7.503906-7.503906-7.503906zm0 0"/><path d="m486.828125 266.796875c-4.144531 0-7.5 3.355469-7.5 7.5v27.003906c0 4.144531 3.355469 7.503907 7.5 7.503907s7.503906-3.359376 7.503906-7.503907v-27.003906c0-4.144531-3.359375-7.5-7.503906-7.5zm0 0"/><path d="m486.828125 212.785156c-4.144531 0-7.5 3.359375-7.5 7.5v27.007813c0 4.140625 3.355469 7.5 7.5 7.5s7.503906-3.359375 7.503906-7.5v-27.007813c0-4.140625-3.359375-7.5-7.503906-7.5zm0 0"/><path d="m29.832031 449.988281h390.324219c16.449219 0 29.832031-13.382812 29.832031-29.828125v-390.328125c0-16.449219-13.382812-29.832031-29.832031-29.832031h-390.324219c-16.449219 0-29.832031 13.382812-29.832031 29.832031v129.480469c0 4.144531 3.359375 7.503906 7.5 7.503906 4.144531 0 7.503906-3.359375 7.503906-7.503906v-68.132812h419.980469v328.980468c0 8.171875-6.652344 14.824219-14.828125 14.824219h-390.324219c-8.175781 0-14.828125-6.652344-14.828125-14.824219v-214.835937c0-4.144531-3.359375-7.503907-7.503906-7.503907-4.140625 0-7.5 3.359376-7.5 7.503907v214.835937c0 16.445313 13.382812 29.828125 29.832031 29.828125zm-14.828125-373.8125v-46.34375c0-8.175781 6.652344-14.828125 14.828125-14.828125h390.324219c8.175781 0 14.828125 6.652344 14.828125 14.828125v46.34375zm0 0"/><path d="m64.535156 23.574219c-12.136718 0-22.011718 9.878906-22.011718 22.015625 0 12.140625 9.875 22.015625 22.011718 22.015625 12.140625 0 22.015625-9.875 22.015625-22.015625 0-12.136719-9.875-22.015625-22.015625-22.015625zm0 29.027343c-3.863281 0-7.007812-3.144531-7.007812-7.011718 0-3.863282 3.144531-7.011719 7.007812-7.011719 3.867188 0 7.011719 3.148437 7.011719 7.011719 0 3.867187-3.144531 7.011718-7.011719 7.011718zm0 0"/><path d="m120.585938 23.574219c-12.136719 0-22.015626 9.878906-22.015626 22.015625 0 12.140625 9.878907 22.015625 22.015626 22.015625 12.140624 0 22.015624-9.875 22.015624-22.015625 0-12.136719-9.878906-22.015625-22.015624-22.015625zm0 29.027343c-3.867188 0-7.011719-3.144531-7.011719-7.011718 0-3.863282 3.144531-7.011719 7.011719-7.011719 3.867187 0 7.011718 3.148437 7.011718 7.011719 0 3.867187-3.148437 7.011718-7.011718 7.011718zm0 0"/><path d="m176.636719 23.574219c-12.140625 0-22.015625 9.878906-22.015625 22.015625 0 12.140625 9.875 22.015625 22.015625 22.015625 12.136719 0 22.011719-9.875 22.011719-22.015625 0-12.136719-9.875-22.015625-22.011719-22.015625zm0 29.027343c-3.867188 0-7.011719-3.144531-7.011719-7.011718 0-3.863282 3.144531-7.011719 7.011719-7.011719 3.863281 0 7.007812 3.148437 7.007812 7.011719 0 3.867187-3.144531 7.011718-7.007812 7.011718zm0 0"/></svg>