<svg height="496pt" viewBox="0 0 496 496" width="496pt" xmlns="http://www.w3.org/2000/svg"><path d="m152 168c-4.414062 0-8-3.59375-8-8h-16c0 13.230469 10.769531 24 24 24zm0 0"/><path d="m344 344v16c13.230469 0 24-10.769531 24-24h-16c0 4.40625-3.585938 8-8 8zm0 0"/><path d="m472 272c-12.921875 0-23.414062 10.289062-23.902344 23.089844l-53.640625 16.765625c-7.9375-16.503907-23.6875-28.511719-42.449219-31.214844v-89.777344c13.769532-3.574219 24-16 24-30.863281 0-6.265625-1.878906-12.070312-5-17.007812l91.335938-97.054688c2.960938 1.308594 6.214844 2.0625 9.65625 2.0625 13.230469 0 24-10.769531 24-24s-10.769531-24-24-24-24 10.769531-24 24c0 3.945312 1.046875 7.617188 2.742188 10.902344l-91.4375 97.167968c-4.570313-2.511718-9.738282-4.070312-15.304688-4.070312-14.871094 0-27.289062 10.238281-30.863281 24h-105.777344c-3.527344-24.472656-22.886719-43.832031-47.359375-47.359375v-58.113281c9.289062-3.3125 16-12.113282 16-22.527344 0-13.230469-10.769531-24-24-24s-24 10.769531-24 24c0 10.414062 6.710938 19.214844 16 22.527344v58.113281c-27.089844 3.902344-48 27.207031-48 55.359375 0 8.894531 2.144531 17.289062 5.847656 24.769531l-63.808594 43.863281c-3.949218-2.878906-8.78125-4.632812-14.039062-4.632812-13.230469 0-24 10.769531-24 24s10.769531 24 24 24 24-10.769531 24-24c0-2.144531-.375-4.191406-.902344-6.167969l63.839844-43.886719c8.519531 9.214844 20.0625 15.542969 33.0625 17.414063v89.777344c-13.769531 3.574219-24 16-24 30.863281 0 6.265625 1.878906 12.070312 5 17.015625l-91.34375 97.046875c-2.960938-1.308594-6.214844-2.0625-9.65625-2.0625-13.230469 0-24 10.769531-24 24s10.769531 24 24 24 24-10.769531 24-24c0-3.945312-1.046875-7.617188-2.742188-10.902344l91.445313-97.160156c4.570313 2.503906 9.730469 4.0625 15.296875 4.0625 1.953125 0 3.832031-.238281 5.6875-.574219l25.585938 55.414063c-4.472657 4.367187-7.273438 10.433594-7.273438 17.160156 0 13.230469 10.769531 24 24 24s24-10.769531 24-24-10.769531-24-24-24c-.742188 0-1.441406.152344-2.160156.214844l-25.65625-55.582032c5.160156-4.234374 8.960937-9.984374 10.6875-16.632812h105.769531c3.527344 24.472656 22.886719 43.832031 47.359375 47.359375v58.113281c-9.289062 3.3125-16 12.113282-16 22.527344 0 13.230469 10.769531 24 24 24s24-10.769531 24-24c0-10.414062-6.710938-19.214844-16-22.527344v-58.113281c27.089844-3.902344 48-27.207031 48-55.359375 0-3.023438-.3125-5.976562-.777344-8.878906l53.65625-16.769532c4.386719 5.824219 11.289063 9.648438 19.121094 9.648438 13.230469 0 24-10.769531 24-24s-10.769531-24-24-24zm-448-16c-4.414062 0-8-3.59375-8-8s3.585938-8 8-8 8 3.59375 8 8-3.585938 8-8 8zm184 184c0 4.40625-3.585938 8-8 8s-8-3.59375-8-8 3.585938-8 8-8 8 3.59375 8 8zm264-424c4.414062 0 8 3.59375 8 8s-3.585938 8-8 8-8-3.59375-8-8 3.585938-8 8-8zm-128 128c8.824219 0 16 7.175781 16 16s-7.175781 16-16 16-16-7.175781-16-16 7.175781-16 16-16zm-192-128c4.414062 0 8 3.59375 8 8s-3.585938 8-8 8-8-3.59375-8-8 3.585938-8 8-8zm-40 144c0-22.054688 17.945312-40 40-40s40 17.945312 40 40-17.945312 40-40 40-40-17.945312-40-40zm-88 320c-4.414062 0-8-3.59375-8-8s3.585938-8 8-8 8 3.59375 8 8-3.585938 8-8 8zm112-144c0-8.824219 7.175781-16 16-16s16 7.175781 16 16-7.175781 16-16 16-16-7.175781-16-16zm24-30.863281v-89.777344c24.472656-3.527344 43.832031-22.886719 47.359375-47.359375h105.777344c2.910156 11.191406 11.671875 19.953125 22.863281 22.863281v89.777344c-24.472656 3.527344-43.832031 22.886719-47.359375 47.359375h-105.777344c-2.910156-11.191406-11.671875-19.953125-22.863281-22.863281zm184 174.863281c-4.414062 0-8-3.59375-8-8s3.585938-8 8-8 8 3.59375 8 8-3.585938 8-8 8zm0-104c-22.054688 0-40-17.945312-40-40s17.945312-40 40-40 40 17.945312 40 40-17.945312 40-40 40zm128-72c-4.414062 0-8-3.59375-8-8s3.585938-8 8-8 8 3.59375 8 8-3.585938 8-8 8zm0 0"/></svg>