<?xml version="1.0"?>
<svg xmlns="http://www.w3.org/2000/svg" xmlns:xlink="http://www.w3.org/1999/xlink" version="1.1" viewBox="0 0 192 192" width="50px" height="50px"><g fill="none" fill-rule="nonzero" stroke="none" stroke-width="1" stroke-linecap="butt" stroke-linejoin="miter" stroke-miterlimit="10" stroke-dasharray="" stroke-dashoffset="0" font-family="none" font-weight="none" font-size="none" text-anchor="none" style="mix-blend-mode: normal"><path d="M0,192v-192h192v192z" fill="none"/><g fill="#ffffff"><path d="M96,7.68c-48.73231,0 -88.32,39.58769 -88.32,88.32c0,48.73231 39.58769,88.32 88.32,88.32c48.73231,0 88.32,-39.58769 88.32,-88.32c0,-48.73231 -39.58769,-88.32 -88.32,-88.32zM96,15.36c44.58172,0 80.64,36.05828 80.64,80.64c0,44.58172 -36.05828,80.64 -80.64,80.64c-44.58172,0 -80.64,-36.05828 -80.64,-80.64c0,-44.58172 36.05828,-80.64 80.64,-80.64zM92.16,49.92v42.24h-42.24v7.68h42.24v42.24h7.68v-42.24h42.24v-7.68h-42.24v-42.24z"/></g></g></svg>
